<?xml version="1.0" encoding="utf-8"?>
<!-- Generator: Adobe Illustrator 22.1.0, SVG Export Plug-In . SVG Version: 6.00 Build 0)  -->
<svg version="1.1" id="OBJECTS" xmlns="http://www.w3.org/2000/svg" xmlns:xlink="http://www.w3.org/1999/xlink" x="0px" y="0px"
	 viewBox="0 0 500 500" style="enable-background:new 0 0 500 500;" xml:space="preserve">
<style type="text/css">
	.st0{opacity:0.1;fill:#34DCE7;}
	.st1{fill:#224DC2;}
	.st2{fill:#226FCD;}
	.st3{fill:#479EE8;}
	.st4{fill:#15081F;}
	.st5{fill:#80FFFF;}
	.st6{fill:#34DCE7;}
	.st7{fill:#DBFF0E;}
	.st8{fill:#FF551F;}
	.st9{fill:#FF2995;}
	.st10{opacity:0.17;}
	.st11{fill:#FEB187;}
	.st12{fill:#F88B65;}
	.st13{fill:#B7FFE7;}
	.st14{fill:#96D2E7;}
	.st15{fill:#14C3E7;}
	.st16{fill:#14AFE7;}
	.st17{fill:#DC9266;}
	.st18{fill:#0C2898;}
	.st19{fill:#133AAF;}
	.st20{fill:#2273DB;}
	.st21{fill:#22A4FD;}
	.st22{opacity:0.65;fill:#224DC2;}
	.st23{fill:#52FFFD;}
	.st24{fill:#70FFE7;}
	.st25{fill:#2293F0;}
	.st26{fill:#22B2FF;}
	.st27{fill:#77FFFF;}
	.st28{fill:#27B0D7;}
	.st29{fill:#5FFFFF;}
	.st30{fill:#226EE5;}
	.st31{fill:#111F9A;}
	.st32{fill:#1159C9;}
	.st33{fill:#111B54;}
	.st34{fill:#34C6E7;}
	.st35{fill:#151586;}
	.st36{opacity:0.3;fill:#34DCE7;}
	.st37{opacity:0.66;fill:#34DCE7;}
	.st38{fill:none;stroke:#34FBE7;stroke-linecap:round;stroke-linejoin:round;stroke-miterlimit:10;}
	.st39{fill:#34FBE7;}
</style>
<g>
	<ellipse class="st0" cx="251.8" cy="412.9" rx="89.8" ry="26.9"/>
	<ellipse class="st0" cx="251.8" cy="405.8" rx="65.7" ry="19.7"/>
	<ellipse class="st0" cx="251.8" cy="404.4" rx="49.2" ry="14.7"/>
	<rect x="115" y="276.7" class="st1" width="265" height="5.9"/>
	<path class="st1" d="M334.5,263.3H164.3c-2.8,0-5-2.3-5-5V145.4c0-2.8,2.3-5,5-5h170.1c2.8,0,5,2.3,5,5v112.8
		C339.5,261,337.3,263.3,334.5,263.3z"/>
	<path class="st2" d="M334.5,140.4H164.3c-2.8,0-5,2.3-5,5v105.2h180.2V145.4C339.5,142.7,337.3,140.4,334.5,140.4z"/>
	<path class="st3" d="M334.5,140.4H164.3c-2.8,0-5,2.3-5,5v0.4c0-2.8,2.3-5,5-5h170.1c2.8,0,5,2.3,5,5v-0.4
		C339.5,142.7,337.3,140.4,334.5,140.4z"/>
	<rect x="166.3" y="148.1" class="st4" width="166.2" height="98.4"/>
	<g>
		<path class="st5" d="M283.2,163h-94c-0.6,0-1.2-0.5-1.2-1.2l0,0c0-0.6,0.5-1.2,1.2-1.2h94c0.6,0,1.2,0.5,1.2,1.2l0,0
			C284.4,162.5,283.9,163,283.2,163z"/>
		<path class="st6" d="M233.1,155.9h-59.9c-0.8,0-1.5-0.7-1.5-1.5l0,0c0-0.8,0.7-1.5,1.5-1.5h59.9c0.8,0,1.5,0.7,1.5,1.5l0,0
			C234.6,155.2,233.9,155.9,233.1,155.9z"/>
		<path class="st6" d="M178.9,163h-6c-0.6,0-1.2-0.5-1.2-1.2l0,0c0-0.6,0.5-1.2,1.2-1.2h6c0.6,0,1.2,0.5,1.2,1.2l0,0
			C180.1,162.5,179.6,163,178.9,163z"/>
		<path class="st7" d="M221.9,169.4h-48.4c-0.4,0-0.7-0.3-0.7-0.7l0,0c0-0.4,0.3-0.7,0.7-0.7h48.4c0.4,0,0.7,0.3,0.7,0.7l0,0
			C222.6,169.1,222.3,169.4,221.9,169.4z"/>
		<path class="st7" d="M221.9,175.3h-48.4c-0.4,0-0.7-0.3-0.7-0.7l0,0c0-0.4,0.3-0.7,0.7-0.7h48.4c0.4,0,0.7,0.3,0.7,0.7l0,0
			C222.6,174.9,222.3,175.3,221.9,175.3z"/>
		<path class="st7" d="M221.9,181.2h-48.4c-0.4,0-0.7-0.3-0.7-0.7v0c0-0.4,0.3-0.7,0.7-0.7h48.4c0.4,0,0.7,0.3,0.7,0.7v0
			C222.6,180.8,222.3,181.2,221.9,181.2z"/>
		<path class="st7" d="M221.9,187h-48.4c-0.4,0-0.7-0.3-0.7-0.7l0,0c0-0.4,0.3-0.7,0.7-0.7h48.4c0.4,0,0.7,0.3,0.7,0.7l0,0
			C222.6,186.7,222.3,187,221.9,187z"/>
		<path class="st7" d="M180.8,192.9h-7.4c-0.4,0-0.7-0.3-0.7-0.7l0,0c0-0.4,0.3-0.7,0.7-0.7h7.4c0.4,0,0.7,0.3,0.7,0.7l0,0
			C181.6,192.6,181.2,192.9,180.8,192.9z"/>
		<path class="st7" d="M193.7,192.9h-7.4c-0.4,0-0.7-0.3-0.7-0.7l0,0c0-0.4,0.3-0.7,0.7-0.7h7.4c0.4,0,0.7,0.3,0.7,0.7l0,0
			C194.4,192.6,194.1,192.9,193.7,192.9z"/>
		<path class="st7" d="M206.6,192.9h-7.4c-0.4,0-0.7-0.3-0.7-0.7l0,0c0-0.4,0.3-0.7,0.7-0.7h7.4c0.4,0,0.7,0.3,0.7,0.7l0,0
			C207.3,192.6,207,192.9,206.6,192.9z"/>
		<path class="st7" d="M219.5,192.9h-7.4c-0.4,0-0.7-0.3-0.7-0.7l0,0c0-0.4,0.3-0.7,0.7-0.7h7.4c0.4,0,0.7,0.3,0.7,0.7l0,0
			C220.2,192.6,219.9,192.9,219.5,192.9z"/>
		<path class="st7" d="M232.4,192.9H225c-0.4,0-0.7-0.3-0.7-0.7l0,0c0-0.4,0.3-0.7,0.7-0.7h7.4c0.4,0,0.7,0.3,0.7,0.7l0,0
			C233.1,192.6,232.8,192.9,232.4,192.9z"/>
		<path class="st7" d="M245.3,192.9h-7.4c-0.4,0-0.7-0.3-0.7-0.7l0,0c0-0.4,0.3-0.7,0.7-0.7h7.4c0.4,0,0.7,0.3,0.7,0.7l0,0
			C246,192.6,245.7,192.9,245.3,192.9z"/>
		<path class="st7" d="M221.9,198.8h-48.4c-0.4,0-0.7-0.3-0.7-0.7l0,0c0-0.4,0.3-0.7,0.7-0.7h48.4c0.4,0,0.7,0.3,0.7,0.7l0,0
			C222.6,198.5,222.3,198.8,221.9,198.8z"/>
		<path class="st8" d="M321.4,179.2H262c-0.6,0-1-0.5-1-1l0,0c0-0.6,0.5-1,1-1h59.4c0.6,0,1,0.5,1,1l0,0
			C322.4,178.8,322,179.2,321.4,179.2z"/>
		<path class="st9" d="M321.4,188.1H262c-0.6,0-1-0.5-1-1v0c0-0.6,0.5-1,1-1h59.4c0.6,0,1,0.5,1,1v0
			C322.4,187.6,322,188.1,321.4,188.1z"/>
		<path class="st9" d="M321.4,196.3H262c-0.6,0-1-0.5-1-1l0,0c0-0.6,0.5-1,1-1h59.4c0.6,0,1,0.5,1,1l0,0
			C322.4,195.8,322,196.3,321.4,196.3z"/>
		<path class="st9" d="M321.4,204.5H262c-0.6,0-1-0.5-1-1l0,0c0-0.6,0.5-1,1-1h59.4c0.6,0,1,0.5,1,1l0,0
			C322.4,204.1,322,204.5,321.4,204.5z"/>
		<path class="st9" d="M321.4,212.8H262c-0.6,0-1-0.5-1-1l0,0c0-0.6,0.5-1,1-1h59.4c0.6,0,1,0.5,1,1l0,0
			C322.4,212.3,322,212.8,321.4,212.8z"/>
		<path class="st9" d="M292.5,221H262c-0.6,0-1-0.5-1-1l0,0c0-0.6,0.5-1,1-1h30.5c0.6,0,1,0.5,1,1l0,0
			C293.5,220.6,293.1,221,292.5,221z"/>
		<path class="st9" d="M312.5,226.7H282c-0.6,0-1-0.5-1-1l0,0c0-0.6,0.5-1,1-1h30.5c0.6,0,1,0.5,1,1l0,0
			C313.5,226.2,313,226.7,312.5,226.7z"/>
		<path class="st9" d="M312.5,232.5H282c-0.6,0-1-0.5-1-1v0c0-0.6,0.5-1,1-1h30.5c0.6,0,1,0.5,1,1v0
			C313.5,232,313,232.5,312.5,232.5z"/>
		<path class="st9" d="M195.2,232.5H181c-0.6,0-1-0.5-1-1v0c0-0.6,0.5-1,1-1h14.2c0.6,0,1,0.5,1,1v0
			C196.2,232,195.7,232.5,195.2,232.5z"/>
		<path class="st9" d="M195.2,227.7H181c-0.6,0-1-0.5-1-1l0,0c0-0.6,0.5-1,1-1h14.2c0.6,0,1,0.5,1,1l0,0
			C196.2,227.2,195.7,227.7,195.2,227.7z"/>
		<path class="st9" d="M195.2,222.9H181c-0.6,0-1-0.5-1-1l0,0c0-0.6,0.5-1,1-1h14.2c0.6,0,1,0.5,1,1l0,0
			C196.2,222.4,195.7,222.9,195.2,222.9z"/>
		<path class="st9" d="M195.2,218H181c-0.6,0-1-0.5-1-1l0,0c0-0.6,0.5-1,1-1h14.2c0.6,0,1,0.5,1,1l0,0
			C196.2,217.6,195.7,218,195.2,218z"/>
		<path class="st9" d="M208.6,218h-4.3c-0.6,0-1-0.5-1-1l0,0c0-0.6,0.5-1,1-1h4.3c0.6,0,1,0.5,1,1l0,0
			C209.6,217.6,209.2,218,208.6,218z"/>
		<path class="st9" d="M208.6,228.7h-4.3c-0.6,0-1-0.5-1-1l0,0c0-0.6,0.5-1,1-1h4.3c0.6,0,1,0.5,1,1l0,0
			C209.6,228.2,209.2,228.7,208.6,228.7z"/>
	</g>
	<g class="st10">
		<polygon class="st3" points="332.5,210.5 332.5,192.9 278.9,246.5 296.5,246.5 		"/>
		<polygon class="st3" points="240.2,246.5 332.5,154.2 332.5,148.1 291.4,148.1 193.1,246.5 		"/>
		<polygon class="st3" points="166.3,190.9 166.3,230.7 248.8,148.1 209.1,148.1 		"/>
	</g>
	<g>
		<rect x="240.7" y="214.8" class="st11" width="18.5" height="13.9"/>
		<path class="st12" d="M240.7,225.6c0,0,8.2,3.7,18.5,0c0,2.2,0,4,0,4l-5.1,0.9l-4.2,0.8l-9.2-3.1V225.6z"/>
		<path class="st13" d="M271.9,324.8h-44.1c-4.8,0-8.6-3.9-8.6-8.6v-8.5c0-4.8,3.9-8.6,8.6-8.6h44.1c4.8,0,8.6,3.9,8.6,8.6v8.5
			C280.6,320.9,276.7,324.8,271.9,324.8z"/>
		<path class="st14" d="M280.3,314.8c-31.7,9.3-60.9-0.1-60.9-0.1c1.2,5.7,6.3,10.1,12.3,10.1H268
			C274.1,324.8,279.1,320.5,280.3,314.8z"/>
		<g>
			<g>
				<path class="st6" d="M252.9,173.6l12.9-12.9c0,0,3.2,6-0.5,12.9l5.3-5.3c0,0,2.4,7.2-2.5,11.1l4.4-4.4c0,0,2.8,8.2-7.4,14.4
					L252.9,173.6z"/>
				<path class="st15" d="M263.5,187.2l4.1,0.5c0,0,0,0,0,0c0-0.3,1.1-11.6-11.8-16.9l-2.8,2.8L263.5,187.2z"/>
				<circle class="st11" cx="265.4" cy="201" r="5.7"/>
				<circle class="st11" cx="234.6" cy="201" r="5.7"/>
				<path class="st6" d="M250,223L250,223c-9.8,0-17.8-8-17.8-17.8v-14c0-9.8,8-17.8,17.8-17.8h0c9.8,0,17.8,8,17.8,17.8v14
					C267.8,215,259.7,223,250,223z"/>
				<polygon class="st16" points="235.8,202.4 235.8,206.8 238,204.6 239.8,206.4 241.5,204.7 243.1,206.2 243.1,201.3 242.5,204.3 
					241.5,203.2 239.8,205.2 237.9,203.2 236.6,204.6 				"/>
				<polygon class="st16" points="244.2,194.5 244.2,200.1 247,197.3 249.3,199.6 251.5,197.4 253.5,199.4 253.5,193 252.8,196.9 
					251.5,195.5 249.3,198.1 246.9,195.5 245.2,197.3 				"/>
				<polygon class="st16" points="258.1,207.7 258.1,211.1 259.9,209.4 261.3,210.8 262.7,209.5 264,210.7 264,206.8 263.5,209.2 
					262.7,208.3 261.3,209.9 259.8,208.3 258.8,209.4 				"/>
				<polygon class="st6" points="246.2,220.8 246.2,225.5 247.5,224.2 248.9,225.6 250.3,224.3 251.6,225.6 251.6,220.8 				"/>
				<polygon class="st6" points="251,220.5 251.6,224.4 252.7,223.4 253.9,224.5 255,223.4 256.1,224.6 256.1,220.6 				"/>
				<polygon class="st6" points="241.7,220.6 241.7,224.4 242.8,223.4 244,224.5 245.1,223.4 246.2,224.6 246.6,220.5 				"/>
				<polygon class="st6" points="238.5,178.5 234.5,174.5 234.5,178.5 230.7,178.5 233.6,181.3 230.7,181.3 233.8,184.4 
					238.5,184.4 				"/>
			</g>
			<polyline class="st11" points="208.5,264.3 206.5,276.7 218.2,276.7 218.2,262.7 209.9,261 			"/>
			<polygon class="st17" points="216.1,266.8 208.1,266.8 208.5,264.3 			"/>
			<path class="st18" d="M229.2,232.3c-8.4,4.1-15.9,5.4-25.3,30.4l14.3,4.7C218.2,267.5,227.6,244.1,229.2,232.3z"/>
			<polyline class="st11" points="290.5,264.3 292.5,276.7 280.7,276.7 280.7,262.7 289,261 			"/>
			<polygon class="st17" points="282.9,266.8 290.9,266.8 290.5,264.3 			"/>
			<path class="st18" d="M269.7,232.3c8.4,4.1,15.9,5.4,25.3,30.4l-14.3,4.7C280.7,267.5,271.3,244.1,269.7,232.3z"/>
			<path class="st1" d="M254.1,314.7h-9.2c-15.7,0-25.5-7.4-25.5-24.7l-3.1-33.8c0-15.7,12.9-28.6,28.6-28.6h9.2
				c15.7,0,28.6,12.9,28.6,28.6l-4.9,31.7C277.7,307.9,269.8,314.7,254.1,314.7z"/>
			<path class="st19" d="M272.8,234.8c-18.3,2.9-42.7,0.4-46.7,0c-4.1,3.6-7.2,8.3-8.7,13.7l2.8,0.3l11.6,1.6l14.8,2.3l13.7,0.9
				l15.7-1.7l5-4.8C279.4,242.2,276.5,238,272.8,234.8z"/>
		</g>
		<g>
			<path class="st1" d="M228,401.1c0,2.5,3.6,2.2,8,2.2c4.4,0,8,0.4,8-2.2c0-2.5-3.6-4.6-8-4.6C231.6,396.5,228,398.6,228,401.1z"/>
			<path class="st13" d="M222.9,324.8l12.9,75.1c0,0,3.7,1.4,8.1,0v-57L222.9,324.8z"/>
			<path class="st14" d="M244,344.2l-0.7-1.3l-0.8-0.1l-17-1.8l2.5,13.2c2.1,0.1,11.5-4.2,15.8,6.7l0.1-0.8V344.2z"/>
			<path class="st1" d="M271.8,401.1c0,2.5-3.6,2.2-8,2.2c-4.4,0-8,0.4-8-2.2c0-2.5,3.6-4.6,8-4.6
				C268.2,396.5,271.8,398.6,271.8,401.1z"/>
			<path class="st13" d="M276.9,324.8L264,399.9c0,0-3.7,1.4-8.1,0v-57L276.9,324.8z"/>
			<path class="st14" d="M255.9,344.2l0.7-1.3l0.8-0.1l17-1.8l-2.5,13.2c-2.1,0.1-11.5-4.2-15.8,6.7l-0.1-0.8V344.2z"/>
		</g>
		<g>
			<path class="st20" d="M251.9,341.1v48.5c0,0.8-0.6,1.4-1.4,1.4h-1.3c-0.8,0-1.4-0.6-1.4-1.4v-48.5c0-0.8,0.6-1.4,1.4-1.4h1.3
				C251.3,339.7,251.9,340.3,251.9,341.1z"/>
			<path class="st21" d="M249.9,363.2L249.9,363.2c-3.7,0-6.7-3-6.7-6.7V345c0-3.7,3-6.7,6.7-6.7h1.3c3,0,5.4,2.4,5.4,5.4v12.8
				C256.6,360.2,253.6,363.2,249.9,363.2z"/>
			<path class="st22" d="M256.6,345.2c-4.1-1.9-9.3-1.9-13.4,0c0-1.6,0-3.2,0-4.8c4.1-1.9,9.3-1.9,13.4,0
				C256.6,342,256.6,343.6,256.6,345.2z"/>
			<g>
				<g>
					<path class="st1" d="M219.2,325.7h-8.5c-11.4,0-20.6-9.2-20.6-20.6c0-11,8.6-20,19.5-20.6c0.1,0,0.2,0,0.4,0h0.7
						c1.3,0,2.3,1,2.3,2.3s-1,2.3-2.3,2.3c-8.8,0-16,7.2-16,16c0,8.8,7.2,16,16,16h8.5c1.3,0,2.3,1,2.3,2.3
						C221.5,324.7,220.4,325.7,219.2,325.7z"/>
				</g>
				<g>
					<g>
						<g>
							<path class="st6" d="M212.8,289.9h-7.4c-2.1,0-3.8-1.7-3.8-3.8l0,0c0-2.1,1.7-3.8,3.8-3.8h7.4c2.1,0,3.8,1.7,3.8,3.8l0,0
								C216.7,288.2,214.9,289.9,212.8,289.9z"/>
						</g>
						<g>
							<path class="st23" d="M205.4,282.7h7.4c2,0,3.7,1.6,3.8,3.6c0-0.1,0-0.1,0-0.2c0-2.1-1.7-3.8-3.8-3.8h-7.4
								c-2.1,0-3.8,1.7-3.8,3.8c0,0.1,0,0.1,0,0.2C201.7,284.3,203.4,282.7,205.4,282.7z"/>
						</g>
					</g>
				</g>
			</g>
			<g>
				<g>
					<path class="st1" d="M279.6,325.7h8.5c11.4,0,20.6-9.2,20.6-20.6c0-11-8.6-20-19.5-20.6c-0.1,0-0.2,0-0.4,0h-0.7
						c-1.3,0-2.3,1-2.3,2.3s1,2.3,2.3,2.3c8.8,0,16,7.2,16,16c0,8.8-7.2,16-16,16h-8.5c-1.3,0-2.3,1-2.3,2.3
						C277.3,324.7,278.4,325.7,279.6,325.7z"/>
				</g>
				<g>
					<g>
						<g>
							<path class="st6" d="M286,289.9h7.4c2.1,0,3.8-1.7,3.8-3.8l0,0c0-2.1-1.7-3.8-3.8-3.8H286c-2.1,0-3.8,1.7-3.8,3.8l0,0
								C282.1,288.2,283.9,289.9,286,289.9z"/>
						</g>
						<g>
							<path class="st23" d="M293.4,282.7H286c-2,0-3.7,1.6-3.8,3.6c0-0.1,0-0.1,0-0.2c0-2.1,1.7-3.8,3.8-3.8h7.4
								c2.1,0,3.8,1.7,3.8,3.8c0,0.1,0,0.1,0,0.2C297.1,284.3,295.4,282.7,293.4,282.7z"/>
						</g>
					</g>
				</g>
			</g>
			<path class="st6" d="M283.2,337.7h-66.5c-5.1,0-9.2-4.2-9.2-9.2v0c0-5.1,4.2-9.2,9.2-9.2h66.5c5.1,0,9.2,4.2,9.2,9.2v0
				C292.4,333.6,288.2,337.7,283.2,337.7z"/>
			<path class="st24" d="M216.6,320.1h66.5c4.9,0,9,3.9,9.2,8.8c0-0.1,0-0.3,0-0.4c0-5.1-4.2-9.2-9.2-9.2h-66.5
				c-5.1,0-9.2,4.2-9.2,9.2c0,0.1,0,0.3,0,0.4C207.6,324.1,211.7,320.1,216.6,320.1z"/>
			<path class="st6" d="M261.2,311h-24c-9.6,0-17.4-7.8-17.4-17.4l-4.4-37.7c0-9.6,7.8-17.4,17.4-17.4H267c9.6,0,17.4,7.8,17.4,17.4
				l-5.8,37.7C278.6,303.1,270.8,311,261.2,311z"/>
			<path class="st23" d="M232.8,239.1H267c9.4,0,17.1,7.6,17.4,16.9l0-0.2c0-9.6-7.8-17.4-17.4-17.4h-34.2
				c-9.6,0-17.4,7.8-17.4,17.4l0,0.3C215.7,246.7,223.4,239.1,232.8,239.1z"/>
			<path class="st1" d="M279.2,341.2h-58.7c-2.2,0-4.1-1.8-4.1-4.1v0c0-2.2,1.8-4.1,4.1-4.1h58.7c2.2,0,4.1,1.8,4.1,4.1v0
				C283.3,339.4,281.5,341.2,279.2,341.2z"/>
			<path class="st1" d="M264.9,349.3h-30c-1.5,0-2.8-1.3-2.8-2.8v-2.5c0-1.5,1.3-2.8,2.8-2.8h30c1.5,0,2.8,1.3,2.8,2.8v2.5
				C267.7,348,266.4,349.3,264.9,349.3z"/>
			<path class="st25" d="M220.5,333.3h58.7c2.2,0,4,1.8,4.1,4c0,0,0-0.1,0-0.1c0-2.2-1.8-4.1-4.1-4.1h-58.7c-2.2,0-4.1,1.8-4.1,4.1
				c0,0,0,0.1,0,0.1C216.5,335.1,218.3,333.3,220.5,333.3z"/>
			<path class="st20" d="M275.7,343.4h-51.6c-1.1,0-2-0.9-2-2l0,0c0-1.1,0.9-2,2-2h51.6c1.1,0,2,0.9,2,2l0,0
				C277.7,342.5,276.8,343.4,275.7,343.4z"/>
			<path class="st26" d="M224.1,339.5h51.6c1.1,0,2,0.9,2,2c0,0,0,0,0-0.1c0-1.1-0.9-2-2-2h-51.6c-1.1,0-2,0.9-2,2c0,0,0,0,0,0.1
				C222.1,340.4,223,339.5,224.1,339.5z"/>
			<path class="st21" d="M246.2,394.2v-6.4c0-2,1.7-3.7,3.7-3.7l0,0c2,0,3.7,1.7,3.7,3.7v6.4"/>
			<g>
				<path class="st20" d="M222.1,401.1c-0.6,0-1.1-0.3-1.3-0.9c-0.3-0.7,0-1.6,0.7-1.9c18.5-8.4,39.8-8.4,58.4,0
					c0.7,0.3,1.1,1.2,0.7,1.9c-0.3,0.7-1.2,1.1-1.9,0.7c-17.8-8-38.2-8-56,0C222.5,401,222.3,401.1,222.1,401.1z"/>
			</g>
			<path class="st1" d="M254.9,395.8h-9.5c-0.9,0-1.7-0.7-1.7-1.7v-1.5c0-0.9,0.7-1.7,1.7-1.7h9.5c0.9,0,1.7,0.7,1.7,1.7v1.5
				C256.6,395.1,255.9,395.8,254.9,395.8z"/>
			<path class="st20" d="M250.2,406.3L250.2,406.3c-0.6,0-1-0.5-1-1v-10.8c0-0.6,0.5-1,1-1l0,0c0.6,0,1,0.5,1,1v10.8
				C251.2,405.9,250.7,406.3,250.2,406.3z"/>
			<path class="st6" d="M250.2,412.9L250.2,412.9c-1.5,0-2.8-1.2-2.8-2.8v-5.2c0-1.5,1.2-2.8,2.8-2.8h0c1.5,0,2.8,1.2,2.8,2.8v5.2
				C253,411.6,251.7,412.9,250.2,412.9z"/>
			<g>
				<circle class="st6" cx="281.7" cy="402.7" r="5.2"/>
				<path class="st27" d="M281.7,397.6c2.9,0,5.2,2.3,5.2,5.2c0,0,0,0,0-0.1c0-2.9-2.3-5.2-5.2-5.2s-5.2,2.3-5.2,5.2c0,0,0,0,0,0.1
					C276.5,399.9,278.9,397.6,281.7,397.6z"/>
				<circle class="st28" cx="281.7" cy="402.7" r="3.1"/>
				<circle class="st20" cx="281.7" cy="402.7" r="1.3"/>
				<path class="st29" d="M281.7,401.5c0.7,0,1.2,0.5,1.2,1.2c0,0,0,0,0,0C283,402,282.4,401.5,281.7,401.5
					c-0.7-0.1-1.3,0.5-1.3,1.2c0,0,0,0,0,0C280.5,402.1,281.1,401.5,281.7,401.5z"/>
			</g>
			<g>
				<circle class="st6" cx="220.6" cy="402.7" r="5.2"/>
				<path class="st27" d="M220.6,397.6c2.9,0,5.2,2.3,5.2,5.2c0,0,0,0,0-0.1c0-2.9-2.3-5.2-5.2-5.2c-2.9,0-5.2,2.3-5.2,5.2
					c0,0,0,0,0,0.1C215.4,399.9,217.7,397.6,220.6,397.6z"/>
				<circle class="st28" cx="220.6" cy="402.7" r="3.1"/>
				<circle class="st20" cx="220.6" cy="402.7" r="1.3"/>
				<path class="st29" d="M220.6,401.5c0.7,0,1.2,0.5,1.2,1.2c0,0,0,0,0,0C221.9,402,221.3,401.5,220.6,401.5
					c-0.7-0.1-1.3,0.5-1.3,1.2c0,0,0,0,0,0C219.4,402.1,219.9,401.5,220.6,401.5z"/>
			</g>
			<path class="st1" d="M259.2,279.4h-18.5c-4.7,0-8.5-3.8-8.5-8.5v0c0-4.7,3.8-8.5,8.5-8.5h18.5c4.7,0,8.5,3.8,8.5,8.5v0
				C267.7,275.6,263.9,279.4,259.2,279.4z"/>
			<path class="st30" d="M259.2,262.4h-18.5c-4.7,0-8.5,3.8-8.5,8.5v0c0,0,0,0.1,0,0.1c0.1-4.6,3.9-8.4,8.5-8.4h18.5
				c4.6,0,8.5,3.8,8.5,8.4c0,0,0-0.1,0-0.1v0C267.7,266.2,263.9,262.4,259.2,262.4z"/>
			<path class="st31" d="M251.2,337.1h-2.5c-1.5,0-2.8-1.3-2.8-2.8v-62.7c0-1.5,1.3-2.8,2.8-2.8h2.5c1.5,0,2.8,1.3,2.8,2.8v62.7
				C253.9,335.9,252.7,337.1,251.2,337.1z"/>
			<g>
				<path class="st32" d="M252.5,274.8h-5.2c-0.3,0-0.6-0.3-0.6-0.6v-0.6c0-0.3,0.3-0.6,0.6-0.6h5.2c0.3,0,0.6,0.3,0.6,0.6v0.6
					C253.1,274.6,252.8,274.8,252.5,274.8z"/>
				<path class="st33" d="M252.5,274.8h-5.2c-0.3,0-0.6-0.3-0.6-0.6v-0.5c0-0.3,0.3-0.6,0.6-0.6h5.2c0.3,0,0.6,0.3,0.6,0.6v0.5
					C253.1,274.5,252.8,274.8,252.5,274.8z"/>
			</g>
			<g>
				<path class="st32" d="M252.5,279.7h-5.2c-0.3,0-0.6-0.3-0.6-0.6v-0.6c0-0.3,0.3-0.6,0.6-0.6h5.2c0.3,0,0.6,0.3,0.6,0.6v0.6
					C253.1,279.4,252.8,279.7,252.5,279.7z"/>
				<path class="st33" d="M252.5,279.6h-5.2c-0.3,0-0.6-0.3-0.6-0.6v-0.5c0-0.3,0.3-0.6,0.6-0.6h5.2c0.3,0,0.6,0.3,0.6,0.6v0.5
					C253.1,279.3,252.8,279.6,252.5,279.6z"/>
			</g>
			<g>
				<path class="st32" d="M252.5,284.3h-5.2c-0.3,0-0.6-0.3-0.6-0.6v-0.6c0-0.3,0.3-0.6,0.6-0.6h5.2c0.3,0,0.6,0.3,0.6,0.6v0.6
					C253.1,284,252.8,284.3,252.5,284.3z"/>
				<path class="st33" d="M252.5,284.2h-5.2c-0.3,0-0.6-0.3-0.6-0.6v-0.5c0-0.3,0.3-0.6,0.6-0.6h5.2c0.3,0,0.6,0.3,0.6,0.6v0.5
					C253.1,283.9,252.8,284.2,252.5,284.2z"/>
			</g>
			<g>
				<path class="st32" d="M252.5,288.9h-5.2c-0.3,0-0.6-0.3-0.6-0.6v-0.6c0-0.3,0.3-0.6,0.6-0.6h5.2c0.3,0,0.6,0.3,0.6,0.6v0.6
					C253.1,288.6,252.8,288.9,252.5,288.9z"/>
				<path class="st33" d="M252.5,288.8h-5.2c-0.3,0-0.6-0.3-0.6-0.6v-0.5c0-0.3,0.3-0.6,0.6-0.6h5.2c0.3,0,0.6,0.3,0.6,0.6v0.5
					C253.1,288.5,252.8,288.8,252.5,288.8z"/>
			</g>
			<g>
				<path class="st32" d="M252.5,293.5h-5.2c-0.3,0-0.6-0.3-0.6-0.6v-0.6c0-0.3,0.3-0.6,0.6-0.6h5.2c0.3,0,0.6,0.3,0.6,0.6v0.6
					C253.1,293.2,252.8,293.5,252.5,293.5z"/>
				<path class="st33" d="M252.5,293.4h-5.2c-0.3,0-0.6-0.3-0.6-0.6v-0.5c0-0.3,0.3-0.6,0.6-0.6h5.2c0.3,0,0.6,0.3,0.6,0.6v0.5
					C253.1,293.1,252.8,293.4,252.5,293.4z"/>
			</g>
			<g>
				<path class="st32" d="M252.5,298.1h-5.2c-0.3,0-0.6-0.3-0.6-0.6v-0.6c0-0.3,0.3-0.6,0.6-0.6h5.2c0.3,0,0.6,0.3,0.6,0.6v0.6
					C253.1,297.8,252.8,298.1,252.5,298.1z"/>
				<path class="st33" d="M252.5,298h-5.2c-0.3,0-0.6-0.3-0.6-0.6v-0.5c0-0.3,0.3-0.6,0.6-0.6h5.2c0.3,0,0.6,0.3,0.6,0.6v0.5
					C253.1,297.7,252.8,298,252.5,298z"/>
			</g>
			<g>
				<path class="st32" d="M252.5,302.7h-5.2c-0.3,0-0.6-0.3-0.6-0.6v-0.6c0-0.3,0.3-0.6,0.6-0.6h5.2c0.3,0,0.6,0.3,0.6,0.6v0.6
					C253.1,302.4,252.8,302.7,252.5,302.7z"/>
				<path class="st33" d="M252.5,302.6h-5.2c-0.3,0-0.6-0.3-0.6-0.6v-0.5c0-0.3,0.3-0.6,0.6-0.6h5.2c0.3,0,0.6,0.3,0.6,0.6v0.5
					C253.1,302.3,252.8,302.6,252.5,302.6z"/>
			</g>
			<g>
				<path class="st32" d="M252.5,307.3h-5.2c-0.3,0-0.6-0.3-0.6-0.6v-0.6c0-0.3,0.3-0.6,0.6-0.6h5.2c0.3,0,0.6,0.3,0.6,0.6v0.6
					C253.1,307,252.8,307.3,252.5,307.3z"/>
				<path class="st33" d="M252.5,307.2h-5.2c-0.3,0-0.6-0.3-0.6-0.6v-0.5c0-0.3,0.3-0.6,0.6-0.6h5.2c0.3,0,0.6,0.3,0.6,0.6v0.5
					C253.1,306.9,252.8,307.2,252.5,307.2z"/>
			</g>
			<g>
				<path class="st32" d="M252.5,311.9h-5.2c-0.3,0-0.6-0.3-0.6-0.6v-0.6c0-0.3,0.3-0.6,0.6-0.6h5.2c0.3,0,0.6,0.3,0.6,0.6v0.6
					C253.1,311.6,252.8,311.9,252.5,311.9z"/>
				<path class="st33" d="M252.5,311.8h-5.2c-0.3,0-0.6-0.3-0.6-0.6v-0.5c0-0.3,0.3-0.6,0.6-0.6h5.2c0.3,0,0.6,0.3,0.6,0.6v0.5
					C253.1,311.5,252.8,311.8,252.5,311.8z"/>
			</g>
			<g>
				<path class="st32" d="M252.5,316.5h-5.2c-0.3,0-0.6-0.3-0.6-0.6v-0.6c0-0.3,0.3-0.6,0.6-0.6h5.2c0.3,0,0.6,0.3,0.6,0.6v0.6
					C253.1,316.2,252.8,316.5,252.5,316.5z"/>
				<path class="st33" d="M252.5,316.4h-5.2c-0.3,0-0.6-0.3-0.6-0.6v-0.5c0-0.3,0.3-0.6,0.6-0.6h5.2c0.3,0,0.6,0.3,0.6,0.6v0.5
					C253.1,316.1,252.8,316.4,252.5,316.4z"/>
			</g>
			<g>
				<path class="st32" d="M252.5,321.1h-5.2c-0.3,0-0.6-0.3-0.6-0.6v-0.6c0-0.3,0.3-0.6,0.6-0.6h5.2c0.3,0,0.6,0.3,0.6,0.6v0.6
					C253.1,320.8,252.8,321.1,252.5,321.1z"/>
				<path class="st33" d="M252.5,321h-5.2c-0.3,0-0.6-0.3-0.6-0.6v-0.5c0-0.3,0.3-0.6,0.6-0.6h5.2c0.3,0,0.6,0.3,0.6,0.6v0.5
					C253.1,320.7,252.8,321,252.5,321z"/>
			</g>
			<g>
				<path class="st32" d="M252.5,325.7h-5.2c-0.3,0-0.6-0.3-0.6-0.6v-0.6c0-0.3,0.3-0.6,0.6-0.6h5.2c0.3,0,0.6,0.3,0.6,0.6v0.6
					C253.1,325.4,252.8,325.7,252.5,325.7z"/>
				<path class="st33" d="M252.5,325.6h-5.2c-0.3,0-0.6-0.3-0.6-0.6v-0.5c0-0.3,0.3-0.6,0.6-0.6h5.2c0.3,0,0.6,0.3,0.6,0.6v0.5
					C253.1,325.3,252.8,325.6,252.5,325.6z"/>
			</g>
			<g>
				<path class="st32" d="M252.5,330.3h-5.2c-0.3,0-0.6-0.3-0.6-0.6v-0.6c0-0.3,0.3-0.6,0.6-0.6h5.2c0.3,0,0.6,0.3,0.6,0.6v0.6
					C253.1,330,252.8,330.3,252.5,330.3z"/>
				<path class="st33" d="M252.5,330.2h-5.2c-0.3,0-0.6-0.3-0.6-0.6v-0.5c0-0.3,0.3-0.6,0.6-0.6h5.2c0.3,0,0.6,0.3,0.6,0.6v0.5
					C253.1,329.9,252.8,330.2,252.5,330.2z"/>
			</g>
		</g>
	</g>
	<g>
		<g>
			<path class="st34" d="M334.1,269.5c-2.8,0-5-2.2-5-5c0-2.8,2.2-5,5-5s5,2.2,5,5C339.1,267.2,336.9,269.5,334.1,269.5z M334.1,261
				c-1.9,0-3.5,1.6-3.5,3.5s1.6,3.5,3.5,3.5s3.5-1.6,3.5-3.5S336.1,261,334.1,261z"/>
		</g>
		<path class="st6" d="M334,257.4v10c0,4.5-3.6,8.1-8.1,8.1l0,0c-4.5,0-8.1-3.6-8.1-8.1v-10H334z"/>
		<path class="st34" d="M333.2,276.7h-14.6c-0.5,0-0.9-0.4-0.9-0.9v-0.4c0-0.5,0.4-0.9,0.9-0.9h14.6c0.5,0,0.9,0.4,0.9,0.9v0.4
			C334.1,276.3,333.7,276.7,333.2,276.7z"/>
	</g>
	<g>
		<g>
			<path class="st35" d="M197.4,100.4H90.3l-0.1-0.5c-0.2-0.8-0.2-1.6-0.2-2.4c0-6.6,5.4-12,12-12c2.5,0,5,0.8,7,2.3
				c2.9-14.3,15.3-24.6,30-24.6c12.8,0,24.2,7.9,28.7,19.8c3.3-3,7.6-4.7,12.1-4.7c9.9,0,18,8.1,18,18c0,1.2-0.1,2.4-0.4,3.6
				L197.4,100.4z M91.3,99.2h105.1c0.2-1,0.2-1.9,0.2-2.9c0-9.3-7.5-16.8-16.8-16.8c-4.5,0-8.8,1.8-12,5l-0.7,0.7l-0.3-0.9
				c-4.1-11.9-15.3-19.9-27.8-19.9c-14.5,0-26.7,10.3-29,24.6l-0.2,1.1l-0.8-0.7c-2-1.7-4.5-2.6-7.1-2.6c-6,0-10.8,4.9-10.8,10.8
				C91.1,98.1,91.2,98.7,91.3,99.2z"/>
		</g>
		<g>
			<path class="st35" d="M145,94.8h-9.7c-1.3,0-2.3-1-2.3-2.3v-5.9h-2.6c-0.9,0-1.6-0.5-2-1.3s-0.2-1.7,0.5-2.3l9.7-9.7
				c0.8-0.8,2.2-0.8,3,0l9.7,9.7c0.6,0.6,0.8,1.5,0.5,2.3s-1.1,1.3-2,1.3h-2.6v5.9C147.3,93.7,146.3,94.8,145,94.8z M140.1,73.7
				c-0.2,0-0.5,0.1-0.7,0.3l-9.7,9.7c-0.3,0.3-0.3,0.6-0.2,1c0.1,0.4,0.5,0.6,0.8,0.6h3.8v7.2c0,0.6,0.5,1.1,1.1,1.1h9.7
				c0.6,0,1.1-0.5,1.1-1.1v-7.2h3.8c0.4,0,0.7-0.2,0.8-0.6c0.1-0.4,0.1-0.7-0.2-1l-9.7-9.7C140.6,73.8,140.4,73.7,140.1,73.7z"/>
		</g>
	</g>
	<g>
		<g>
			<path class="st35" d="M313,56H269l0-0.2c-0.1-0.3-0.1-0.7-0.1-1c0-2.7,2.2-4.9,4.9-4.9c1,0,2,0.3,2.9,0.9
				c1.2-5.9,6.3-10.1,12.3-10.1c5.2,0,9.9,3.3,11.8,8.1c1.4-1.2,3.1-1.9,5-1.9c4.1,0,7.4,3.3,7.4,7.4c0,0.5,0,1-0.1,1.5L313,56z
				 M269.5,55.5h43.1c0.1-0.4,0.1-0.8,0.1-1.2c0-3.8-3.1-6.9-6.9-6.9c-1.9,0-3.6,0.7-4.9,2.1l-0.3,0.3l-0.1-0.4
				c-1.7-4.9-6.3-8.2-11.4-8.2c-5.9,0-10.9,4.2-11.9,10.1l-0.1,0.4l-0.3-0.3c-0.8-0.7-1.8-1.1-2.9-1.1c-2.4,0-4.4,2-4.4,4.4
				C269.4,55,269.4,55.3,269.5,55.5z"/>
		</g>
		<g>
			<path class="st35" d="M291.5,53.7h-4c-0.5,0-0.9-0.4-0.9-0.9v-2.4h-1.1c-0.4,0-0.7-0.2-0.8-0.5c-0.1-0.3-0.1-0.7,0.2-0.9l4-4
				c0.3-0.3,0.9-0.3,1.2,0l4,4c0.3,0.3,0.3,0.6,0.2,0.9c-0.1,0.3-0.4,0.5-0.8,0.5h-1.1v2.4C292.4,53.2,292,53.7,291.5,53.7z
				 M289.5,45c-0.1,0-0.2,0-0.3,0.1l-4,4c-0.1,0.1-0.1,0.3-0.1,0.4c0.1,0.1,0.2,0.2,0.3,0.2h1.5v2.9c0,0.3,0.2,0.5,0.5,0.5h4
				c0.3,0,0.5-0.2,0.5-0.5v-2.9h1.5c0.2,0,0.3-0.1,0.3-0.2c0.1-0.1,0-0.3-0.1-0.4l-4-4C289.7,45.1,289.6,45,289.5,45z"/>
		</g>
	</g>
	<g>
		<g>
			<path class="st35" d="M404.5,319.7h-76.4l-0.1-0.3c-0.1-0.6-0.2-1.1-0.2-1.7c0-4.7,3.9-8.6,8.6-8.6c1.8,0,3.6,0.6,5,1.6
				c2-10.2,10.9-17.5,21.4-17.5c9.1,0,17.2,5.7,20.4,14.1c2.4-2.2,5.4-3.4,8.7-3.4c7.1,0,12.9,5.8,12.9,12.9c0,0.9-0.1,1.7-0.3,2.6
				L404.5,319.7z M328.8,318.8h75c0.1-0.7,0.2-1.4,0.2-2.1c0-6.6-5.4-12-12-12c-3.2,0-6.3,1.3-8.5,3.6l-0.5,0.5l-0.2-0.7
				c-2.9-8.5-10.9-14.2-19.9-14.2c-10.3,0-19,7.4-20.7,17.5l-0.1,0.8l-0.6-0.5c-1.4-1.2-3.2-1.9-5-1.9c-4.3,0-7.7,3.5-7.7,7.7
				C328.7,318,328.8,318.4,328.8,318.8z"/>
		</g>
		<g>
			<path class="st35" d="M367.1,315.6h-6.9c-0.9,0-1.7-0.7-1.7-1.7v-4.2h-1.8c-0.6,0-1.2-0.4-1.4-0.9c-0.2-0.6-0.1-1.2,0.3-1.7
				l6.9-6.9c0.6-0.6,1.6-0.6,2.1,0l6.9,6.9c0.4,0.4,0.6,1.1,0.3,1.7c-0.2,0.6-0.8,0.9-1.4,0.9h-1.8v4.2
				C368.8,314.9,368.1,315.6,367.1,315.6z M363.7,300.6c-0.2,0-0.3,0.1-0.5,0.2l-6.9,6.9c-0.2,0.2-0.2,0.5-0.1,0.7
				c0.1,0.3,0.3,0.4,0.6,0.4h2.7v5.1c0,0.4,0.4,0.8,0.8,0.8h6.9c0.4,0,0.8-0.4,0.8-0.8v-5.1h2.7c0.3,0,0.5-0.2,0.6-0.4
				c0.1-0.3,0.1-0.5-0.1-0.7l-6.9-6.9C364,300.7,363.9,300.6,363.7,300.6z"/>
		</g>
	</g>
	<rect x="65.1" y="90.1" class="st36" width="149.2" height="0.7"/>
	<g>
		<path class="st36" d="M206.8,181.2H72.6c-4.2,0-7.5-3.4-7.5-7.5V90.1h149.2v83.5C214.4,177.8,211,181.2,206.8,181.2z"/>
		<rect x="78.4" y="109.2" class="st36" width="79.5" height="28.5"/>
		<rect x="78.4" y="143.1" class="st36" width="27.9" height="8.8"/>
		<rect x="110.6" y="143.1" class="st36" width="47.3" height="8.8"/>
		<rect x="163.2" y="109.2" class="st36" width="43.3" height="12.3"/>
		<rect x="78.4" y="157.3" class="st36" width="128" height="12.3"/>
		<rect x="163.2" y="124.8" class="st36" width="43.3" height="28.1"/>
		<rect x="65.1" y="90.1" class="st36" width="149.2" height="14.9"/>
		<circle class="st36" cx="71.1" cy="97.2" r="3.1"/>
		<path class="st6" d="M71.1,100.3c-1.7,0-3.1-1.4-3.1-3.1c0,0,0,0,0,0c0,1.7,1.4,3.2,3.1,3.2s3.1-1.4,3.1-3.2c0,0,0,0,0,0
			C74.2,98.9,72.8,100.3,71.1,100.3z"/>
		<circle class="st36" cx="78.4" cy="97.2" r="3.1"/>
		<path class="st6" d="M78.4,100.3c-1.7,0-3.1-1.4-3.1-3.1c0,0,0,0,0,0c0,1.7,1.4,3.2,3.1,3.2s3.1-1.4,3.1-3.2c0,0,0,0,0,0
			C81.5,98.9,80.1,100.3,78.4,100.3z"/>
		<circle class="st36" cx="85.7" cy="97.2" r="3.1"/>
		<path class="st6" d="M85.7,100.3c-1.7,0-3.1-1.4-3.1-3.1c0,0,0,0,0,0c0,1.7,1.4,3.2,3.1,3.2s3.1-1.4,3.1-3.2c0,0,0,0,0,0
			C88.8,98.9,87.4,100.3,85.7,100.3z"/>
		<rect x="65.1" y="104.7" class="st37" width="149.2" height="0.3"/>
		<circle class="st6" cx="71.1" cy="97.2" r="2.4"/>
		<circle class="st7" cx="78.4" cy="97.2" r="2.4"/>
		<circle class="st9" cx="85.7" cy="97.2" r="2.4"/>
		<path class="st36" d="M71.1,175.3L71.1,175.3c-1.3,0-2.4-1.1-2.4-2.4v-63.3c0-1.3,1.1-2.4,2.4-2.4l0,0c1.3,0,2.4,1.1,2.4,2.4v63.3
			C73.6,174.2,72.5,175.3,71.1,175.3z"/>
		<path class="st6" d="M70.9,127.1L70.9,127.1c-0.5,0-1-0.4-1-1v-15.9c0-0.5,0.4-1,1-1l0,0c0.5,0,1,0.4,1,1v15.9
			C71.9,126.7,71.5,127.1,70.9,127.1z"/>
		<line class="st38" x1="81.5" y1="113.3" x2="115" y2="113.3"/>
		<line class="st38" x1="118.2" y1="113.3" x2="123.6" y2="113.3"/>
		<line class="st38" x1="129.6" y1="113.3" x2="153.4" y2="113.3"/>
		<line class="st38" x1="81.5" y1="116.8" x2="122" y2="116.8"/>
		<line class="st38" x1="126" y1="116.1" x2="142.4" y2="116.1"/>
		<line class="st38" x1="145.5" y1="116.1" x2="153.9" y2="116.1"/>
		<line class="st38" x1="83.3" y1="121" x2="131.1" y2="121"/>
		<line class="st38" x1="136.8" y1="121" x2="149.7" y2="121"/>
		<line class="st38" x1="153.9" y1="124.8" x2="116.9" y2="124.8"/>
		<line class="st38" x1="132.8" y1="130" x2="81.5" y2="130"/>
		<line class="st38" x1="116.9" y1="133.3" x2="154.8" y2="133.3"/>
		<line class="st38" x1="120.9" y1="134.9" x2="89.8" y2="134.9"/>
		<line class="st38" x1="81.5" y1="124.8" x2="95.1" y2="124.8"/>
		<line class="st38" x1="103.4" y1="145.1" x2="94" y2="145.1"/>
		<line class="st38" x1="102.5" y1="149.3" x2="80.9" y2="149.3"/>
		<line class="st38" x1="113" y1="145.1" x2="116.9" y2="145.1"/>
		<line class="st38" x1="120.1" y1="145.1" x2="123.9" y2="145.1"/>
		<line class="st38" x1="127.1" y1="145.1" x2="131" y2="145.1"/>
		<line class="st38" x1="134.2" y1="145.1" x2="138.1" y2="145.1"/>
		<line class="st38" x1="141.3" y1="145.1" x2="145.1" y2="145.1"/>
		<line class="st38" x1="148.3" y1="145.1" x2="152.2" y2="145.1"/>
		<line class="st38" x1="113" y1="148.1" x2="115.5" y2="148.1"/>
		<line class="st38" x1="118.8" y1="148.1" x2="121.3" y2="148.1"/>
		<line class="st38" x1="124.6" y1="148.1" x2="127.1" y2="148.1"/>
		<line class="st38" x1="130.4" y1="148.1" x2="132.9" y2="148.1"/>
		<line class="st38" x1="136.3" y1="148.1" x2="138.8" y2="148.1"/>
		<line class="st38" x1="142.1" y1="148.1" x2="144.6" y2="148.1"/>
		<line class="st38" x1="147.9" y1="148.1" x2="150.4" y2="148.1"/>
		<polyline class="st38" points="83.9,160.4 81.2,163.2 83.8,165.8 		"/>
		<polyline class="st38" points="86.7,160.4 83.9,163.2 86.6,165.8 		"/>
		<polyline class="st38" points="170.4,112.7 167.7,115.5 170.3,118.1 		"/>
		<line class="st38" x1="166.3" y1="128" x2="188.1" y2="128"/>
		<line class="st38" x1="166.3" y1="130.7" x2="174.8" y2="130.7"/>
		<line class="st38" x1="166.3" y1="134.9" x2="174.8" y2="134.9"/>
		<line class="st38" x1="166.3" y1="139.1" x2="174.8" y2="139.1"/>
		<line class="st38" x1="166.3" y1="143.2" x2="174.8" y2="143.2"/>
		<line class="st38" x1="200.3" y1="133.3" x2="194.4" y2="133.3"/>
		<line class="st38" x1="200.3" y1="135.6" x2="194.4" y2="135.6"/>
		<line class="st38" x1="200.3" y1="138" x2="194.4" y2="138"/>
		<line class="st38" x1="200.3" y1="140.4" x2="194.4" y2="140.4"/>
		<line class="st38" x1="200.3" y1="142.8" x2="194.4" y2="142.8"/>
		<line class="st38" x1="200.3" y1="145.2" x2="194.4" y2="145.2"/>
		<line class="st38" x1="200.3" y1="147.5" x2="194.4" y2="147.5"/>
		<line class="st38" x1="200.3" y1="149.9" x2="194.4" y2="149.9"/>
		<line class="st38" x1="93.5" y1="160.4" x2="152.2" y2="160.4"/>
		<line class="st38" x1="93.5" y1="163.1" x2="129.1" y2="163.1"/>
		<line class="st38" x1="93.5" y1="166.9" x2="129.1" y2="166.9"/>
	</g>
	<g>
		<path class="st36" d="M182.5,257H127c-4.2,0-7.5-3.4-7.5-7.5v-58.7H190v58.7C190,253.7,186.7,257,182.5,257z"/>
		<rect x="129.2" y="204.7" class="st36" width="57.8" height="20.8"/>
		<rect x="129.2" y="229.3" class="st36" width="20.3" height="6.4"/>
		<rect x="152.6" y="229.3" class="st36" width="34.4" height="6.4"/>
		<rect x="119.5" y="190.8" class="st36" width="70.6" height="10.8"/>
		<circle class="st36" cx="123.8" cy="195.9" r="2.2"/>
		<path class="st6" d="M123.8,198.2c-1.2,0-2.2-1-2.2-2.2c0,0,0,0,0,0C121.6,197.2,122.6,198.3,123.8,198.2c1.2,0.1,2.2-0.9,2.2-2.2
			c0,0,0,0,0,0C126.1,197.2,125.1,198.2,123.8,198.2z"/>
		<circle class="st36" cx="129.2" cy="195.9" r="2.2"/>
		<path class="st6" d="M129.2,198.2c-1.2,0-2.2-1-2.2-2.2c0,0,0,0,0,0C126.9,197.2,127.9,198.3,129.2,198.2c1.2,0.1,2.2-0.9,2.2-2.2
			c0,0,0,0,0,0C131.4,197.2,130.4,198.2,129.2,198.2z"/>
		<circle class="st36" cx="134.5" cy="195.9" r="2.2"/>
		<path class="st6" d="M134.5,198.2c-1.2,0-2.2-1-2.2-2.2c0,0,0,0,0,0C132.2,197.2,133.2,198.3,134.5,198.2c1.2,0.1,2.2-0.9,2.2-2.2
			c0,0,0,0,0,0C136.7,197.2,135.7,198.2,134.5,198.2z"/>
		<rect x="119.5" y="201.4" class="st37" width="70.6" height="0.2"/>
		<circle class="st6" cx="123.8" cy="195.9" r="1.8"/>
		<circle class="st7" cx="129.2" cy="195.9" r="1.8"/>
		<circle class="st9" cx="134.5" cy="195.9" r="1.8"/>
		<path class="st36" d="M124,252.8h-0.4c-0.9,0-1.6-0.7-1.6-1.6v-46.4c0-0.9,0.7-1.6,1.6-1.6h0.4c0.9,0,1.6,0.7,1.6,1.6v46.4
			C125.6,252,124.9,252.8,124,252.8z"/>
		<path class="st6" d="M123.8,217.7h-0.2c-0.3,0-0.6-0.3-0.6-0.6v-11.7c0-0.3,0.3-0.6,0.6-0.6h0.2c0.3,0,0.6,0.3,0.6,0.6v11.7
			C124.4,217.4,124.1,217.7,123.8,217.7z"/>
		<line class="st38" x1="131.4" y1="207.7" x2="155.8" y2="207.7"/>
		<line class="st38" x1="158.1" y1="207.7" x2="162.1" y2="207.7"/>
		<line class="st38" x1="166.4" y1="207.7" x2="183.7" y2="207.7"/>
		<line class="st38" x1="131.4" y1="210.2" x2="160.9" y2="210.2"/>
		<line class="st38" x1="163.8" y1="209.7" x2="175.8" y2="209.7"/>
		<line class="st38" x1="178" y1="209.7" x2="184.1" y2="209.7"/>
		<line class="st38" x1="132.7" y1="213.3" x2="167.5" y2="213.3"/>
		<line class="st38" x1="171.6" y1="213.3" x2="181" y2="213.3"/>
		<line class="st38" x1="184.1" y1="216" x2="157.1" y2="216"/>
		<line class="st38" x1="168.7" y1="219.8" x2="131.4" y2="219.8"/>
		<line class="st38" x1="157.1" y1="222.2" x2="184.7" y2="222.2"/>
		<line class="st38" x1="160.1" y1="223.4" x2="137.4" y2="223.4"/>
		<line class="st38" x1="131.4" y1="216" x2="141.3" y2="216"/>
		<line class="st38" x1="147.3" y1="230.8" x2="140.5" y2="230.8"/>
		<line class="st38" x1="146.7" y1="233.8" x2="130.9" y2="233.8"/>
		<line class="st38" x1="154.3" y1="230.8" x2="157.1" y2="230.8"/>
		<line class="st38" x1="159.5" y1="230.8" x2="162.3" y2="230.8"/>
		<line class="st38" x1="164.6" y1="230.8" x2="167.4" y2="230.8"/>
		<line class="st38" x1="169.7" y1="230.8" x2="172.6" y2="230.8"/>
		<line class="st38" x1="174.9" y1="230.8" x2="177.7" y2="230.8"/>
		<line class="st38" x1="180" y1="230.8" x2="182.8" y2="230.8"/>
		<line class="st38" x1="154.3" y1="233" x2="156.1" y2="233"/>
		<line class="st38" x1="158.6" y1="233" x2="160.4" y2="233"/>
		<line class="st38" x1="162.8" y1="233" x2="164.6" y2="233"/>
		<line class="st38" x1="167" y1="233" x2="168.8" y2="233"/>
		<line class="st38" x1="171.2" y1="233" x2="173.1" y2="233"/>
		<line class="st38" x1="175.5" y1="233" x2="177.3" y2="233"/>
		<line class="st38" x1="179.7" y1="233" x2="181.5" y2="233"/>
		<polyline class="st38" points="133.2,241.9 131.2,243.9 133.1,245.9 		"/>
		<polyline class="st38" points="135.2,241.9 133.2,243.9 135.1,245.9 		"/>
		<line class="st38" x1="140.1" y1="241.9" x2="182.8" y2="241.9"/>
		<line class="st38" x1="140.1" y1="243.9" x2="166" y2="243.9"/>
		<line class="st38" x1="140.1" y1="246.7" x2="166" y2="246.7"/>
	</g>
	<g>
		<path class="st36" d="M366.9,255.4h-41.2c-4.2,0-7.5-3.4-7.5-7.5v-21.1h56.3v21.1C374.4,252,371,255.4,366.9,255.4z"/>
		<rect x="323.9" y="235.1" class="st36" width="32.7" height="12.4"/>
		<rect x="318.1" y="226.8" class="st36" width="56.3" height="6.5"/>
		<circle class="st36" cx="320.7" cy="229.9" r="1.3"/>
		<path class="st6" d="M320.7,231.2c-0.7,0-1.3-0.6-1.3-1.3c0,0,0,0,0,0C319.4,230.6,320,231.3,320.7,231.2c0.7,0.1,1.3-0.6,1.3-1.3
			c0,0,0,0,0,0C322,230.6,321.5,231.2,320.7,231.2z"/>
		<circle class="st36" cx="323.9" cy="229.9" r="1.3"/>
		<path class="st6" d="M323.9,231.2c-0.7,0-1.3-0.6-1.3-1.3c0,0,0,0,0,0C322.6,230.6,323.2,231.3,323.9,231.2
			c0.7,0.1,1.3-0.6,1.3-1.3c0,0,0,0,0,0C325.2,230.6,324.6,231.2,323.9,231.2z"/>
		<circle class="st36" cx="327.1" cy="229.9" r="1.3"/>
		<path class="st6" d="M327.1,231.2c-0.7,0-1.3-0.6-1.3-1.3c0,0,0,0,0,0C325.7,230.6,326.3,231.3,327.1,231.2
			c0.7,0.1,1.3-0.6,1.3-1.3c0,0,0,0,0,0C328.4,230.6,327.8,231.2,327.1,231.2z"/>
		<rect x="318.1" y="233.1" class="st37" width="56.3" height="0.1"/>
		<circle class="st6" cx="320.7" cy="229.9" r="1.1"/>
		<circle class="st7" cx="323.9" cy="229.9" r="1.1"/>
		<circle class="st9" cx="327.1" cy="229.9" r="1.1"/>
		<path class="st36" d="M320.7,252.8L320.7,252.8c-0.6,0-1.1-0.5-1.1-1.1v-16.5c0-0.6,0.5-1.1,1.1-1.1l0,0c0.6,0,1.1,0.5,1.1,1.1
			v16.5C321.8,252.3,321.3,252.8,320.7,252.8z"/>
		<path class="st6" d="M320.6,242.9L320.6,242.9c-0.2,0-0.4-0.2-0.4-0.4v-6.9c0-0.2,0.2-0.4,0.4-0.4l0,0c0.2,0,0.4,0.2,0.4,0.4v6.9
			C321.1,242.7,320.9,242.9,320.6,242.9z"/>
		<g>
			<g>
				<path class="st39" d="M335.4,236.4h-10.3c-0.1,0-0.2-0.1-0.2-0.2c0-0.1,0.1-0.2,0.2-0.2h10.3c0.1,0,0.2,0.1,0.2,0.2
					C335.6,236.4,335.5,236.4,335.4,236.4z"/>
			</g>
			<g>
				<path class="st39" d="M337.6,236.4h-1.4c-0.1,0-0.2-0.1-0.2-0.2c0-0.1,0.1-0.2,0.2-0.2h1.4c0.1,0,0.2,0.1,0.2,0.2
					C337.8,236.4,337.7,236.4,337.6,236.4z"/>
			</g>
			<g>
				<path class="st39" d="M351.6,236.4h-12.5c-0.1,0-0.2-0.1-0.2-0.2c0-0.1,0.1-0.2,0.2-0.2h12.5c0.1,0,0.2,0.1,0.2,0.2
					C351.8,236.4,351.7,236.4,351.6,236.4z"/>
			</g>
			<g>
				<path class="st39" d="M337.2,237.3h-12.1c-0.1,0-0.2-0.1-0.2-0.2s0.1-0.2,0.2-0.2h12.1c0.1,0,0.2,0.1,0.2,0.2
					S337.3,237.3,337.2,237.3z"/>
			</g>
			<g>
				<path class="st39" d="M348.8,237.2h-10.6c-0.1,0-0.2-0.1-0.2-0.2c0-0.1,0.1-0.2,0.2-0.2h10.6c0.1,0,0.2,0.1,0.2,0.2
					C349,237.1,348.9,237.2,348.8,237.2z"/>
			</g>
			<g>
				<path class="st39" d="M351.8,237.2h-2.1c-0.1,0-0.2-0.1-0.2-0.2c0-0.1,0.1-0.2,0.2-0.2h2.1c0.1,0,0.2,0.1,0.2,0.2
					C351.9,237.1,351.9,237.2,351.8,237.2z"/>
			</g>
			<g>
				<path class="st39" d="M339.5,238.4h-14c-0.1,0-0.2-0.1-0.2-0.2s0.1-0.2,0.2-0.2h14c0.1,0,0.2,0.1,0.2,0.2
					S339.6,238.4,339.5,238.4z"/>
			</g>
			<g>
				<path class="st39" d="M350.7,238.4h-3.3c-0.1,0-0.2-0.1-0.2-0.2s0.1-0.2,0.2-0.2h3.3c0.1,0,0.2,0.1,0.2,0.2
					S350.8,238.4,350.7,238.4z"/>
			</g>
			<g>
				<path class="st39" d="M351.8,239.4h-15.9c-0.1,0-0.2-0.1-0.2-0.2s0.1-0.2,0.2-0.2h15.9c0.1,0,0.2,0.1,0.2,0.2
					S351.9,239.4,351.8,239.4z"/>
			</g>
			<g>
				<path class="st39" d="M339.9,240.7h-14.8c-0.1,0-0.2-0.1-0.2-0.2s0.1-0.2,0.2-0.2h14.8c0.1,0,0.2,0.1,0.2,0.2
					S340,240.7,339.9,240.7z"/>
			</g>
			<g>
				<path class="st39" d="M352,241.5h-16.1c-0.1,0-0.2-0.1-0.2-0.2s0.1-0.2,0.2-0.2H352c0.1,0,0.2,0.1,0.2,0.2
					S352.1,241.5,352,241.5z"/>
			</g>
			<g>
				<path class="st39" d="M331.6,241.9h-4.4c-0.1,0-0.2-0.1-0.2-0.2s0.1-0.2,0.2-0.2h4.4c0.1,0,0.2,0.1,0.2,0.2
					S331.7,241.9,331.6,241.9z"/>
			</g>
			<g>
				<path class="st39" d="M328.6,239.4h-3.5c-0.1,0-0.2-0.1-0.2-0.2s0.1-0.2,0.2-0.2h3.5c0.1,0,0.2,0.1,0.2,0.2
					S328.7,239.4,328.6,239.4z"/>
			</g>
		</g>
	</g>
	<g>
		<g>
			<path class="st36" d="M388,211.9h-85.3c-4.2,0-7.5-3.4-7.5-7.5V66.3h100.3v138.1C395.5,208.5,392.2,211.9,388,211.9z"/>
			<rect x="308.6" y="85.4" class="st36" width="79.5" height="69.5"/>
			<rect x="308.6" y="173.8" class="st36" width="27.9" height="8.8"/>
			<rect x="340.7" y="173.8" class="st36" width="47.3" height="8.8"/>
			<rect x="308.6" y="188" class="st36" width="79.5" height="12.3"/>
			<rect x="295.2" y="66.3" class="st36" width="100.3" height="14.9"/>
			<circle class="st36" cx="301.2" cy="73.3" r="3.1"/>
			<path class="st6" d="M301.2,76.4c-1.7,0-3.1-1.4-3.1-3.1c0,0,0,0,0,0c0,1.7,1.4,3.2,3.1,3.2s3.1-1.4,3.1-3.2c0,0,0,0,0,0
				C304.3,75,302.9,76.4,301.2,76.4z"/>
			<circle class="st36" cx="308.6" cy="73.3" r="3.1"/>
			<path class="st6" d="M308.6,76.4c-1.7,0-3.1-1.4-3.1-3.1c0,0,0,0,0,0c0,1.7,1.4,3.2,3.1,3.2s3.1-1.4,3.1-3.2c0,0,0,0,0,0
				C311.6,75,310.3,76.4,308.6,76.4z"/>
			<circle class="st36" cx="315.8" cy="73.3" r="3.1"/>
			<path class="st6" d="M315.8,76.4c-1.7,0-3.1-1.4-3.1-3.1c0,0,0,0,0,0c0,1.7,1.4,3.2,3.1,3.2s3.1-1.4,3.1-3.2c0,0,0,0,0,0
				C318.9,75,317.5,76.4,315.8,76.4z"/>
			<rect x="295.2" y="80.9" class="st37" width="100.3" height="0.3"/>
			<circle class="st6" cx="301.2" cy="73.3" r="2.4"/>
			<circle class="st7" cx="308.6" cy="73.3" r="2.4"/>
			<circle class="st9" cx="315.8" cy="73.3" r="2.4"/>
			<path class="st36" d="M301.2,206L301.2,206c-1.3,0-2.4-1.1-2.4-2.4V85.7c0-1.3,1.1-2.4,2.4-2.4l0,0c1.3,0,2.4,1.1,2.4,2.4v117.8
				C303.7,204.9,302.6,206,301.2,206z"/>
			<path class="st6" d="M301,103.3L301,103.3c-0.5,0-1-0.4-1-1V86.4c0-0.5,0.4-1,1-1l0,0c0.5,0,1,0.4,1,1v15.9
				C302,102.8,301.6,103.3,301,103.3z"/>
			<line class="st38" x1="311.6" y1="89.5" x2="345.1" y2="89.5"/>
			<line class="st38" x1="348.3" y1="89.5" x2="353.7" y2="89.5"/>
			<line class="st38" x1="359.7" y1="89.5" x2="383.5" y2="89.5"/>
			<line class="st38" x1="311.6" y1="92.9" x2="352.1" y2="92.9"/>
			<line class="st38" x1="356.1" y1="92.3" x2="372.6" y2="92.3"/>
			<line class="st38" x1="375.6" y1="92.3" x2="384" y2="92.3"/>
			<line class="st38" x1="313.4" y1="97.2" x2="361.2" y2="97.2"/>
			<line class="st38" x1="366.9" y1="97.2" x2="379.8" y2="97.2"/>
			<line class="st38" x1="384" y1="101" x2="347" y2="101"/>
			<line class="st38" x1="362.9" y1="106.2" x2="311.6" y2="106.2"/>
			<line class="st38" x1="347" y1="109.4" x2="384.9" y2="109.4"/>
			<line class="st38" x1="344" y1="119" x2="312.8" y2="119"/>
			<line class="st38" x1="311.6" y1="101" x2="325.2" y2="101"/>
			<line class="st38" x1="333.5" y1="175.8" x2="324.1" y2="175.8"/>
			<line class="st38" x1="332.6" y1="180" x2="311" y2="180"/>
			<line class="st38" x1="343.1" y1="175.8" x2="347" y2="175.8"/>
			<line class="st38" x1="350.2" y1="175.8" x2="354.1" y2="175.8"/>
			<line class="st38" x1="357.2" y1="175.8" x2="361.1" y2="175.8"/>
			<line class="st38" x1="364.3" y1="175.8" x2="368.2" y2="175.8"/>
			<line class="st38" x1="371.4" y1="175.8" x2="375.2" y2="175.8"/>
			<line class="st38" x1="378.4" y1="175.8" x2="382.3" y2="175.8"/>
			<line class="st38" x1="343.1" y1="178.8" x2="345.6" y2="178.8"/>
			<line class="st38" x1="348.9" y1="178.8" x2="351.4" y2="178.8"/>
			<line class="st38" x1="354.7" y1="178.8" x2="357.2" y2="178.8"/>
			<line class="st38" x1="360.6" y1="178.8" x2="363.1" y2="178.8"/>
			<line class="st38" x1="366.4" y1="178.8" x2="368.9" y2="178.8"/>
			<line class="st38" x1="372.2" y1="178.8" x2="374.7" y2="178.8"/>
			<line class="st38" x1="378" y1="178.8" x2="380.5" y2="178.8"/>
			<polyline class="st38" points="314,191.1 311.3,193.9 313.9,196.5 			"/>
			<polyline class="st38" points="316.8,191.1 314,193.9 316.7,196.5 			"/>
			<polyline class="st38" points="339.7,125.3 333.5,131.5 339.4,137.4 			"/>
			<polyline class="st38" points="345.9,125.3 339.7,131.5 345.6,137.4 			"/>
			<line class="st38" x1="323.6" y1="191.1" x2="382.3" y2="191.1"/>
			<line class="st38" x1="323.6" y1="193.8" x2="359.2" y2="193.8"/>
			<line class="st38" x1="323.6" y1="197.6" x2="359.2" y2="197.6"/>
		</g>
		<circle class="st38" cx="362.4" cy="128.3" r="12.3"/>
		<path class="st38" d="M357.5,131.4c0,2.7,2.2,4.9,4.9,4.9s4.9-2.2,4.9-4.9H357.5z"/>
		<path class="st38" d="M355.1,126.3c0-1.3,1.1-2.4,2.4-2.4c1.3,0,2.4,1.1,2.4,2.4"/>
		<path class="st38" d="M365,126.3c0-1.3,1.1-2.4,2.4-2.4c1.3,0,2.4,1.1,2.4,2.4"/>
		<line class="st38" x1="372.8" y1="140.1" x2="382.9" y2="140.1"/>
	</g>
	<g>
		<path class="st35" d="M395.5,234.6c-3.3,0-6.1-2.7-6.1-6.1c0-3.3,2.7-6.1,6.1-6.1c3.3,0,6.1,2.7,6.1,6.1
			C401.6,231.9,398.9,234.6,395.5,234.6z M395.5,223.5c-2.7,0-5,2.2-5,5s2.2,5,5,5c2.7,0,5-2.2,5-5S398.3,223.5,395.5,223.5z"/>
	</g>
	<g>
		<path class="st35" d="M98.3,207.9c-3.3,0-6.1-2.7-6.1-6.1c0-3.3,2.7-6.1,6.1-6.1c3.3,0,6.1,2.7,6.1,6.1
			C104.3,205.2,101.6,207.9,98.3,207.9z M98.3,196.8c-2.7,0-5,2.2-5,5s2.2,5,5,5c2.7,0,5-2.2,5-5S101,196.8,98.3,196.8z"/>
	</g>
	<g>
		<g>
			
				<rect x="224.8" y="74.3" transform="matrix(0.7071 -0.7071 0.7071 0.7071 7.267 184.0894)" class="st35" width="2" height="17.9"/>
		</g>
		<g>
			
				<rect x="216.9" y="82.3" transform="matrix(0.7071 -0.7071 0.7071 0.7071 7.2631 184.0809)" class="st35" width="17.9" height="2"/>
		</g>
	</g>
	<g>
		<path class="st35" d="M149.5,342.7l-14.2-14.2l14.2-14.2l14.2,14.2L149.5,342.7z M138.1,328.5l11.4,11.4l11.4-11.4l-11.4-11.4
			L138.1,328.5z"/>
	</g>
	<g>
		<path class="st35" d="M101.8,253.4l-14.2-14.2l14.2-14.2l14.2,14.2L101.8,253.4z M90.4,239.2l11.4,11.4l11.4-11.4l-11.4-11.4
			L90.4,239.2z"/>
	</g>
	<g>
		<path class="st35" d="M393.4,264.6l-7.1-7.1l7.1-7.1l7.1,7.1L393.4,264.6z M387.7,257.4l5.7,5.7l5.7-5.7l-5.7-5.7L387.7,257.4z"/>
	</g>
	<g>
		<g>
			<polygon class="st35" points="422.7,194 414.3,185.6 422.7,177.2 423.5,178.1 416,185.6 423.5,193.1 			"/>
		</g>
		<g>
			<polygon class="st35" points="429.1,194 420.7,185.6 429.1,177.2 430,178.1 422.5,185.6 430,193.1 			"/>
		</g>
	</g>
	<g>
		<g>
			<polygon class="st35" points="274.5,130 266.2,121.6 274.5,113.2 275.4,114.1 267.9,121.6 275.4,129.1 			"/>
		</g>
		<g>
			<polygon class="st35" points="281,130 272.6,121.6 281,113.2 281.9,114.1 274.4,121.6 281.9,129.1 			"/>
		</g>
	</g>
	<g>
		<path class="st35" d="M238.7,122.5h-5.8c-0.8,0-1.5-0.7-1.5-1.5v-3.4h-1.4c-0.6,0-1.1-0.3-1.3-0.9c-0.2-0.5-0.1-1.1,0.3-1.5
			l5.8-5.8c0.6-0.6,1.4-0.6,2,0l5.8,5.8c0.4,0.4,0.5,1,0.3,1.5c-0.2,0.5-0.7,0.9-1.3,0.9h-1.4v3.4
			C240.2,121.9,239.5,122.5,238.7,122.5z M235.8,109.9c-0.1,0-0.2,0-0.3,0.1l-5.8,5.8c-0.2,0.2-0.1,0.4-0.1,0.5s0.1,0.3,0.4,0.3h2.4
			v4.4c0,0.3,0.2,0.5,0.5,0.5h5.8c0.3,0,0.5-0.2,0.5-0.5v-4.4h2.4c0.3,0,0.4-0.2,0.4-0.3c0-0.1,0.1-0.3-0.1-0.5l-5.8-5.8
			C236,109.9,235.9,109.9,235.8,109.9z"/>
	</g>
	<g>
		<path class="st35" d="M417.2,154.3h-5.8c-0.8,0-1.5-0.7-1.5-1.5v-3.4h-1.4c-0.6,0-1.1-0.3-1.3-0.9c-0.2-0.5-0.1-1.1,0.3-1.5
			l5.8-5.8c0.6-0.6,1.4-0.6,2,0l5.8,5.8c0.4,0.4,0.5,1,0.3,1.5c-0.2,0.5-0.7,0.9-1.3,0.9h-1.4v3.4
			C418.7,153.6,418,154.3,417.2,154.3z M414.3,141.7c-0.1,0-0.2,0-0.3,0.1l-5.8,5.8c-0.2,0.2-0.1,0.4-0.1,0.5s0.1,0.3,0.4,0.3h2.4
			v4.4c0,0.3,0.2,0.5,0.5,0.5h5.8c0.3,0,0.5-0.2,0.5-0.5v-4.4h2.4c0.3,0,0.4-0.2,0.4-0.3c0-0.1,0.1-0.3-0.1-0.5l-5.8-5.8
			C414.5,141.7,414.4,141.7,414.3,141.7z"/>
	</g>
</g>
</svg>
