<?xml version="1.0" encoding="utf-8"?>
<!-- Generator: Adobe Illustrator 22.1.0, SVG Export Plug-In . SVG Version: 6.00 Build 0)  -->
<svg version="1.1" id="Ñëîé_1" xmlns="http://www.w3.org/2000/svg" xmlns:xlink="http://www.w3.org/1999/xlink" x="0px" y="0px"
	 viewBox="0 0 600 450" style="enable-background:new 0 0 600 450;" xml:space="preserve">
<style type="text/css">
	.st0{fill:url(#SVGID_1_);}
	.st1{fill:url(#SVGID_2_);}
	.st2{fill:url(#SVGID_3_);}
	.st3{opacity:0.6;fill:#020230;}
	.st4{fill:url(#SVGID_4_);}
	.st5{fill:url(#SVGID_5_);}
	.st6{fill:url(#SVGID_6_);}
	.st7{fill:url(#SVGID_7_);}
	.st8{fill:#FFFFFF;}
	.st9{opacity:0.4;}
	.st10{fill:#06033E;}
	.st11{fill:url(#SVGID_8_);}
	.st12{fill:url(#SVGID_9_);}
	.st13{opacity:0.4;fill:#06033E;}
	.st14{opacity:0.5;fill:#06033E;}
	.st15{fill:url(#SVGID_10_);}
	.st16{opacity:0.5;}
	.st17{fill:#E8975B;}
	.st18{fill:#F8359E;}
	.st19{fill:url(#SVGID_11_);}
	.st20{fill:url(#SVGID_12_);}
	.st21{fill:url(#SVGID_13_);}
	.st22{fill:url(#SVGID_14_);}
	.st23{fill:url(#SVGID_15_);}
	.st24{fill:url(#SVGID_16_);}
	.st25{fill:url(#SVGID_17_);}
	.st26{fill:#0C0A78;}
	.st27{fill:url(#SVGID_18_);}
	.st28{opacity:0.5;fill:#FFFFFF;}
</style>
<linearGradient id="SVGID_1_" gradientUnits="userSpaceOnUse" x1="481.059" y1="306.9162" x2="513.6703" y2="306.9162">
	<stop  offset="0" style="stop-color:#E39A65"/>
	<stop  offset="1" style="stop-color:#E95F8D"/>
</linearGradient>
<path class="st0" d="M497.4,316.5c-1.2,0-2.4-0.3-3.5-0.9l-11.7-6.8c-0.7-0.4-1.1-1.1-1.1-1.9c0-0.8,0.4-1.5,1.1-1.9l11.7-6.8
	c2.1-1.2,4.8-1.2,7,0l11.7,6.8c0.7,0.4,1.1,1.1,1.1,1.9c0,0.8-0.4,1.5-1.1,1.9l-11.7,6.8C499.8,316.2,498.6,316.5,497.4,316.5z
	 M497.4,299.2c-0.9,0-1.8,0.2-2.6,0.7l-11.7,6.8c-0.1,0.1-0.2,0.2-0.2,0.3c0,0.1,0,0.2,0.2,0.3l11.7,6.8c0,0,0,0,0,0
	c1.6,0.9,3.5,0.9,5.1,0l11.7-6.8c0.1-0.1,0.2-0.2,0.2-0.3c0-0.1,0-0.2-0.2-0.3l-11.7-6.8C499.1,299.4,498.2,299.2,497.4,299.2z"/>
<linearGradient id="SVGID_2_" gradientUnits="userSpaceOnUse" x1="436.4076" y1="262.223" x2="491.186" y2="262.223">
	<stop  offset="0" style="stop-color:#E39A65"/>
	<stop  offset="1" style="stop-color:#E95F8D"/>
</linearGradient>
<path class="st1" d="M463.8,278.1c-2,0-3.9-0.5-5.7-1.5l-20.2-11.7c-1-0.6-1.5-1.5-1.5-2.7c0-1.1,0.6-2.1,1.5-2.7l20.2-11.7
	c3.5-2,7.8-2,11.3,0l20.2,11.7c1,0.6,1.5,1.5,1.5,2.7c0,1.1-0.6,2.1-1.5,2.7l-20.2,11.7C467.7,277.5,465.8,278.1,463.8,278.1z
	 M459.1,274.9c2.9,1.7,6.5,1.7,9.5,0l20.2-11.7c0.5-0.3,0.6-0.8,0.6-1c0-0.2-0.1-0.7-0.6-1l-20.2-11.7c-2.9-1.7-6.5-1.7-9.5,0
	l-20.2,11.7c-0.5,0.3-0.6,0.8-0.6,1c0,0.2,0.1,0.7,0.6,1L459.1,274.9z"/>
<linearGradient id="SVGID_3_" gradientUnits="userSpaceOnUse" x1="75.185" y1="280.5753" x2="129.9633" y2="280.5753">
	<stop  offset="0" style="stop-color:#E39A65"/>
	<stop  offset="1" style="stop-color:#E95F8D"/>
</linearGradient>
<path class="st2" d="M102.6,296.4c-2,0-3.9-0.5-5.7-1.5l-20.2-11.7c-1-0.6-1.5-1.5-1.5-2.7c0-1.1,0.6-2.1,1.5-2.7l20.2-11.7
	c3.5-2,7.8-2,11.3,0l20.2,11.7c1,0.6,1.5,1.5,1.5,2.7c0,1.1-0.6,2.1-1.5,2.7l-20.2,11.7C106.5,295.9,104.5,296.4,102.6,296.4z
	 M102.6,266.6c-1.6,0-3.3,0.4-4.7,1.3l-20.2,11.7c-0.5,0.3-0.6,0.8-0.6,1c0,0.2,0.1,0.7,0.6,1l20.2,11.7l0,0c2.9,1.7,6.5,1.7,9.5,0
	l20.2-11.7c0.5-0.3,0.6-0.8,0.6-1c0-0.2-0.1-0.7-0.6-1l-20.2-11.7C105.8,267,104.2,266.6,102.6,266.6z"/>
<g>
	<path class="st3" d="M307.1,347.3l-144.4-83.4c-2.1-1.2-1.8-3.3,0.6-4.7l92.7-53.5c2.4-1.4,6.1-1.6,8.2-0.3l144.4,83.4
		c2.1,1.2,1.8,3.3-0.6,4.7l-92.7,53.5C312.9,348.3,309.2,348.5,307.1,347.3z"/>
	<linearGradient id="SVGID_4_" gradientUnits="userSpaceOnUse" x1="138.9594" y1="277.0616" x2="431.3178" y2="277.0616">
		<stop  offset="0" style="stop-color:#E39A65"/>
		<stop  offset="1" style="stop-color:#E95F8D"/>
	</linearGradient>
	<path class="st4" d="M310.4,362.3c-1.7,0-3.3-0.4-4.5-1.1h0L141,266.1c-1.3-0.8-2.1-1.9-2.1-3.2c0-1.4,1-2.9,2.8-3.9l112.4-65.8
		c3.1-1.8,7.6-2,10.3-0.4L429.2,288c1.3,0.8,2.1,1.9,2.1,3.2c0,1.4-1,2.9-2.8,3.9l-112.4,65.8C314.5,361.8,312.4,362.3,310.4,362.3z
		 M259.9,193.7c-1.7,0-3.5,0.4-4.9,1.2l-112.4,65.8c-1.2,0.7-1.8,1.5-1.8,2.3c0,0.7,0.6,1.2,1.2,1.5l164.8,95.2c0,0,0,0,0,0
		c2.1,1.2,6,1,8.4-0.4l112.4-65.8c1.2-0.7,1.8-1.5,1.8-2.3c0-0.7-0.6-1.2-1.2-1.5l-164.8-95.2C262.5,193.9,261.2,193.7,259.9,193.7z
		"/>
	<radialGradient id="SVGID_5_" cx="300.4459" cy="60.6072" r="223.2961" gradientUnits="userSpaceOnUse">
		<stop  offset="0" style="stop-color:#E39A65"/>
		<stop  offset="0.4742" style="stop-color:#A92FFB"/>
		<stop  offset="0.5947" style="stop-color:#891CFB"/>
		<stop  offset="0.7421" style="stop-color:#6507FA"/>
		<stop  offset="0.8016" style="stop-color:#0D0C6F"/>
	</radialGradient>
	<path class="st5" d="M447,148.9L303.1,65.8c-1-0.6-2-0.7-2.9-0.4v0l0,0c0,0,0,0,0,0l-2.7,0.9l0.9,0.2c-0.4,0.4-0.7,1-0.9,1.6
		L265,173.8c-0.8,2.6,0.4,5.8,2.6,7.1L411.5,264c0.3,0.2,0.7,0.3,1.1,0.4l-0.4,0.8l2.5-0.9l0,0c1-0.4,1.9-1.3,2.3-2.7L449.6,156
		C450.4,153.4,449.3,150.2,447,148.9z"/>
	<radialGradient id="SVGID_6_" cx="163.8732" cy="239.9302" r="244.1723" gradientUnits="userSpaceOnUse">
		<stop  offset="0" style="stop-color:#E39A65"/>
		<stop  offset="0.4742" style="stop-color:#A92FFB"/>
		<stop  offset="0.5679" style="stop-color:#891CFB"/>
		<stop  offset="0.6825" style="stop-color:#6507FA"/>
		<stop  offset="0.7381" style="stop-color:#0D0C6F"/>
	</radialGradient>
	<path class="st6" d="M406.4,267.9L406.4,267.9l-142-82c-2.1-1.2-5.7-1.1-8.2,0.3l-91.8,53l-3.1-1.2l0.9,4.3l0,0
		c0.1,0.6,0.6,1.3,1.4,1.7L307,326.9c2.1,1.2,5.7,1.1,8.2-0.3l92-53.1c1.1-0.7,1.8-1.5,2-2.3l0,0l0.9-4.2L406.4,267.9z"/>
	<radialGradient id="SVGID_7_" cx="186.3305" cy="190.9207" r="218.96" gradientUnits="userSpaceOnUse">
		<stop  offset="0" style="stop-color:#E39A65"/>
		<stop  offset="0.4742" style="stop-color:#A92FFB"/>
		<stop  offset="0.5875" style="stop-color:#891CFB"/>
		<stop  offset="0.7262" style="stop-color:#6507FA"/>
		<stop  offset="1" style="stop-color:#3919BB"/>
	</radialGradient>
	<path class="st7" d="M307.1,323.2l-144.4-83.4c-2.1-1.2-1.8-3.3,0.6-4.7l92.7-53.5c2.4-1.4,6.1-1.6,8.2-0.3l144.4,83.4
		c2.1,1.2,1.8,3.3-0.6,4.7l-92.7,53.5C312.9,324.2,309.2,324.4,307.1,323.2z"/>
	<path class="st8" d="M408,268.2l-92.7,53.5c-2.4,1.4-6.1,1.6-8.2,0.3l-144.4-83.4c-0.7-0.4-1.1-0.9-1.3-1.5c-0.3,1,0.1,1.9,1.3,2.6
		l144.4,83.4c2.1,1.2,5.8,1.1,8.2-0.3l92.7-53.5c1.6-0.9,2.2-2.2,1.9-3.2C409.7,266.8,409.1,267.6,408,268.2z"/>
	<g class="st9">
		<path class="st10" d="M231.6,226.3l-4.9-2.8c-0.4-0.2-0.3-0.6,0.1-0.9l5.8-3.3c0.5-0.3,1.1-0.3,1.5-0.1l4.9,2.8
			c0.4,0.2,0.3,0.6-0.1,0.9l-5.8,3.3C232.7,226.4,232,226.5,231.6,226.3z"/>
		<path class="st10" d="M239.1,230.6l-4.9-2.8c-0.4-0.2-0.3-0.6,0.1-0.9l5.8-3.3c0.5-0.3,1.1-0.3,1.5-0.1l4.9,2.8
			c0.4,0.2,0.3,0.6-0.1,0.9l-5.8,3.3C240.2,230.8,239.5,230.8,239.1,230.6z"/>
		<path class="st10" d="M246.6,234.9l-4.9-2.8c-0.4-0.2-0.3-0.6,0.1-0.9l5.8-3.3c0.5-0.3,1.1-0.3,1.5-0.1l4.9,2.8
			c0.4,0.2,0.3,0.6-0.1,0.9l-5.8,3.3C247.7,235.1,247,235.2,246.6,234.9z"/>
		<path class="st10" d="M257.1,231.4l-4.9-2.8c-0.4-0.2-0.3-0.6,0.1-0.9l4.8-2.8c0.5-0.3,1.1-0.3,1.5-0.1l4.9,2.8
			c0.4,0.2,0.3,0.6-0.1,0.9l-4.8,2.8C258.1,231.6,257.4,231.6,257.1,231.4z"/>
		<path class="st10" d="M264.6,235.7l-4.9-2.8c-0.4-0.2-0.3-0.6,0.1-0.9l4.8-2.8c0.5-0.3,1.1-0.3,1.5-0.1l4.9,2.8
			c0.4,0.2,0.3,0.6-0.1,0.9l-4.8,2.8C265.7,235.9,265,235.9,264.6,235.7z"/>
		<path class="st10" d="M272.1,240.1l-4.9-2.8c-0.4-0.2-0.3-0.6,0.1-0.9l4.8-2.8c0.5-0.3,1.1-0.3,1.5-0.1l4.9,2.8
			c0.4,0.2,0.3,0.6-0.1,0.9l-4.8,2.8C273.2,240.2,272.5,240.3,272.1,240.1z"/>
		<path class="st10" d="M279.6,244.4l-4.9-2.8c-0.4-0.2-0.3-0.6,0.1-0.9l4.8-2.8c0.5-0.3,1.1-0.3,1.5-0.1l4.9,2.8
			c0.4,0.2,0.3,0.6-0.1,0.9l-4.8,2.8C280.7,244.6,280,244.6,279.6,244.4z"/>
		<path class="st10" d="M287.2,248.7l-4.9-2.8c-0.4-0.2-0.3-0.6,0.1-0.9l4.8-2.8c0.5-0.3,1.1-0.3,1.5-0.1l4.9,2.8
			c0.4,0.2,0.3,0.6-0.1,0.9l-4.8,2.8C288.3,248.9,287.6,249,287.2,248.7z"/>
		<path class="st10" d="M294.7,253.1l-4.9-2.8c-0.4-0.2-0.3-0.6,0.1-0.9l4.8-2.8c0.5-0.3,1.1-0.3,1.5-0.1l4.9,2.8
			c0.4,0.2,0.3,0.6-0.1,0.9l-4.8,2.8C295.8,253.3,295.1,253.3,294.7,253.1z"/>
		<path class="st10" d="M302.2,257.4l-4.9-2.8c-0.4-0.2-0.3-0.6,0.1-0.9l4.8-2.8c0.5-0.3,1.1-0.3,1.5-0.1l4.9,2.8
			c0.4,0.2,0.3,0.6-0.1,0.9l-4.8,2.8C303.3,257.6,302.6,257.7,302.2,257.4z"/>
		<path class="st10" d="M309.8,261.8l-4.9-2.8c-0.4-0.2-0.3-0.6,0.1-0.9l4.8-2.8c0.5-0.3,1.1-0.3,1.5-0.1l4.9,2.8
			c0.4,0.2,0.3,0.6-0.1,0.9l-4.8,2.8C310.8,262,310.2,262,309.8,261.8z"/>
		<path class="st10" d="M317.3,266.1l-4.9-2.8c-0.4-0.2-0.3-0.6,0.1-0.9l4.8-2.8c0.5-0.3,1.1-0.3,1.5-0.1l4.9,2.8
			c0.4,0.2,0.3,0.6-0.1,0.9l-4.8,2.8C318.4,266.3,317.7,266.4,317.3,266.1z"/>
		<path class="st10" d="M324.8,270.5l-4.9-2.8c-0.4-0.2-0.3-0.6,0.1-0.9l4.8-2.8c0.5-0.3,1.1-0.3,1.5-0.1l4.9,2.8
			c0.4,0.2,0.3,0.6-0.1,0.9l-4.8,2.8C325.9,270.7,325.2,270.7,324.8,270.5z"/>
		<path class="st10" d="M268.2,229.3l-4.9-2.8c-0.4-0.2-0.3-0.6,0.1-0.9l4.8-2.8c0.5-0.3,1.1-0.3,1.5-0.1l4.9,2.8
			c0.4,0.2,0.3,0.6-0.1,0.9l-4.8,2.8C269.2,229.5,268.5,229.5,268.2,229.3z"/>
		<path class="st10" d="M260.5,224.9l-4.9-2.8c-0.4-0.2-0.3-0.6,0.1-0.9l4.8-2.8c0.5-0.3,1.1-0.3,1.5-0.1l4.9,2.8
			c0.4,0.2,0.3,0.6-0.1,0.9l-4.8,2.8C261.6,225.1,260.9,225.1,260.5,224.9z"/>
		<path class="st10" d="M252.9,220.5l-10.5-6.1c-0.4-0.2-0.3-0.6,0.1-0.9l4.8-2.8c0.5-0.3,1.1-0.3,1.5-0.1l10.5,6.1
			c0.4,0.2,0.3,0.6-0.1,0.9l-4.8,2.8C253.9,220.7,253.2,220.7,252.9,220.5z"/>
		<path class="st10" d="M258.2,215.1l-8.5-4.9c-0.4-0.2-0.3-0.6,0.1-0.9l4.8-2.8c0.5-0.3,1.1-0.3,1.5-0.1l8.5,4.9
			c0.4,0.2,0.3,0.6-0.1,0.9l-4.8,2.8C259.3,215.3,258.6,215.3,258.2,215.1z"/>
		<path class="st10" d="M275.7,233.6l-4.9-2.8c-0.4-0.2-0.3-0.6,0.1-0.9l4.8-2.8c0.5-0.3,1.1-0.3,1.5-0.1l4.9,2.8
			c0.4,0.2,0.3,0.6-0.1,0.9l-4.8,2.8C276.8,233.8,276.1,233.9,275.7,233.6z"/>
		<path class="st10" d="M283.2,238l-4.9-2.8c-0.4-0.2-0.3-0.6,0.1-0.9l4.8-2.8c0.5-0.3,1.1-0.3,1.5-0.1l4.9,2.8
			c0.4,0.2,0.3,0.6-0.1,0.9l-4.8,2.8C284.3,238.2,283.6,238.2,283.2,238z"/>
		<path class="st10" d="M290.7,242.3l-4.9-2.8c-0.4-0.2-0.3-0.6,0.1-0.9l4.8-2.8c0.5-0.3,1.1-0.3,1.5-0.1l4.9,2.8
			c0.4,0.2,0.3,0.6-0.1,0.9l-4.8,2.8C291.8,242.5,291.1,242.6,290.7,242.3z"/>
		<path class="st10" d="M298.3,246.7l-4.9-2.8c-0.4-0.2-0.3-0.6,0.1-0.9l4.8-2.8c0.5-0.3,1.1-0.3,1.5-0.1l4.9,2.8
			c0.4,0.2,0.3,0.6-0.1,0.9l-4.8,2.8C299.3,246.9,298.7,246.9,298.3,246.7z"/>
		<path class="st10" d="M305.8,251l-4.9-2.8c-0.4-0.2-0.3-0.6,0.1-0.9l4.8-2.8c0.5-0.3,1.1-0.3,1.5-0.1l4.9,2.8
			c0.4,0.2,0.3,0.6-0.1,0.9l-4.8,2.8C306.9,251.2,306.2,251.3,305.8,251z"/>
		<path class="st10" d="M313.3,255.4l-4.9-2.8c-0.4-0.2-0.3-0.6,0.1-0.9l4.8-2.8c0.5-0.3,1.1-0.3,1.5-0.1l4.9,2.8
			c0.4,0.2,0.3,0.6-0.1,0.9l-4.8,2.8C314.4,255.6,313.7,255.6,313.3,255.4z"/>
		<path class="st10" d="M320.9,259.7l-4.9-2.8c-0.4-0.2-0.3-0.6,0.1-0.9l4.8-2.8c0.5-0.3,1.1-0.3,1.5-0.1l4.9,2.8
			c0.4,0.2,0.3,0.6-0.1,0.9l-4.8,2.8C321.9,259.9,321.3,260,320.9,259.7z"/>
		<path class="st10" d="M328.4,264.1l-4.9-2.8c-0.4-0.2-0.3-0.6,0.1-0.9l4.8-2.8c0.5-0.3,1.1-0.3,1.5-0.1l4.9,2.8
			c0.4,0.2,0.3,0.6-0.1,0.9l-4.8,2.8C329.5,264.3,328.8,264.3,328.4,264.1z"/>
		<path class="st10" d="M335.9,268.4l-4.9-2.8c-0.4-0.2-0.3-0.6,0.1-0.9l4.8-2.8c0.5-0.3,1.1-0.3,1.5-0.1l4.9,2.8
			c0.4,0.2,0.3,0.6-0.1,0.9l-4.8,2.8C337,268.6,336.3,268.7,335.9,268.4z"/>
		<path class="st10" d="M349.3,276.2l-10.6-6.1c-0.4-0.2-0.3-0.6,0.1-0.9l4.8-2.8c0.5-0.3,1.1-0.3,1.5-0.1l10.6,6.1
			c0.4,0.2,0.3,0.6-0.1,0.9l-4.8,2.8C350.4,276.4,349.7,276.4,349.3,276.2z"/>
		<path class="st10" d="M364,267.7l-9-5.2c-0.4-0.2-0.3-0.6,0.1-0.9l4.8-2.8c0.5-0.3,1.1-0.3,1.5-0.1l9,5.2c0.4,0.2,0.3,0.6-0.1,0.9
			l-4.8,2.8C365,267.9,364.4,267.9,364,267.7z"/>
		<path class="st10" d="M288.9,232.8L284,230c-0.4-0.2-0.3-0.6,0.1-0.9l4.8-2.8c0.5-0.3,1.1-0.3,1.5-0.1l4.9,2.8
			c0.4,0.2,0.3,0.6-0.1,0.9l-4.8,2.8C289.9,233,289.3,233,288.9,232.8z"/>
		<path class="st10" d="M281.2,228.3l-4.9-2.8c-0.4-0.2-0.3-0.6,0.1-0.9l4.8-2.8c0.5-0.3,1.1-0.3,1.5-0.1l4.9,2.8
			c0.4,0.2,0.3,0.6-0.1,0.9l-4.8,2.8C282.2,228.5,281.5,228.6,281.2,228.3z"/>
		<path class="st10" d="M273.4,223.9l-4.9-2.8c-0.4-0.2-0.3-0.6,0.1-0.9l4.8-2.8c0.5-0.3,1.1-0.3,1.5-0.1l4.9,2.8
			c0.4,0.2,0.3,0.6-0.1,0.9l-4.8,2.8C274.5,224.1,273.8,224.1,273.4,223.9z"/>
		<path class="st10" d="M265.7,219.4l-4.9-2.8c-0.4-0.2-0.3-0.6,0.1-0.9l4.8-2.8c0.5-0.3,1.1-0.3,1.5-0.1l4.9,2.8
			c0.4,0.2,0.3,0.6-0.1,0.9l-4.8,2.8C266.8,219.6,266.1,219.7,265.7,219.4z"/>
		<path class="st10" d="M296.4,237.1l-4.9-2.8c-0.4-0.2-0.3-0.6,0.1-0.9l4.8-2.8c0.5-0.3,1.1-0.3,1.5-0.1l4.9,2.8
			c0.4,0.2,0.3,0.6-0.1,0.9l-4.8,2.8C297.5,237.3,296.8,237.4,296.4,237.1z"/>
		<path class="st10" d="M303.9,241.5l-4.9-2.8c-0.4-0.2-0.3-0.6,0.1-0.9l4.8-2.8c0.5-0.3,1.1-0.3,1.5-0.1l4.9,2.8
			c0.4,0.2,0.3,0.6-0.1,0.9l-4.8,2.8C305,241.7,304.3,241.7,303.9,241.5z"/>
		<path class="st10" d="M311.5,245.8l-4.9-2.8c-0.4-0.2-0.3-0.6,0.1-0.9l4.8-2.8c0.5-0.3,1.1-0.3,1.5-0.1l4.9,2.8
			c0.4,0.2,0.3,0.6-0.1,0.9l-4.8,2.8C312.5,246,311.9,246.1,311.5,245.8z"/>
		<path class="st10" d="M319,250.2l-4.9-2.8c-0.4-0.2-0.3-0.6,0.1-0.9l4.8-2.8c0.5-0.3,1.1-0.3,1.5-0.1l4.9,2.8
			c0.4,0.2,0.3,0.6-0.1,0.9l-4.8,2.8C320.1,250.4,319.4,250.4,319,250.2z"/>
		<path class="st10" d="M326.5,254.5l-4.9-2.8c-0.4-0.2-0.3-0.6,0.1-0.9l4.8-2.8c0.5-0.3,1.1-0.3,1.5-0.1l4.9,2.8
			c0.4,0.2,0.3,0.6-0.1,0.9l-4.8,2.8C327.6,254.7,326.9,254.8,326.5,254.5z"/>
		<path class="st10" d="M334.1,258.9l-4.9-2.8c-0.4-0.2-0.3-0.6,0.1-0.9l4.8-2.8c0.5-0.3,1.1-0.3,1.5-0.1l4.9,2.8
			c0.4,0.2,0.3,0.6-0.1,0.9l-4.8,2.8C335.1,259.1,334.4,259.1,334.1,258.9z"/>
		<path class="st10" d="M341.6,263.2l-4.9-2.8c-0.4-0.2-0.3-0.6,0.1-0.9l4.8-2.8c0.5-0.3,1.1-0.3,1.5-0.1l4.9,2.8
			c0.4,0.2,0.3,0.6-0.1,0.9l-4.8,2.8C342.7,263.4,342,263.5,341.6,263.2z"/>
		<path class="st10" d="M349.1,267.6l-4.9-2.8c-0.4-0.2-0.3-0.6,0.1-0.9l4.8-2.8c0.5-0.3,1.1-0.3,1.5-0.1l4.9,2.8
			c0.4,0.2,0.3,0.6-0.1,0.9l-4.8,2.8C350.2,267.8,349.5,267.8,349.1,267.6z"/>
		<path class="st10" d="M356.6,271.9l-4.9-2.8c-0.4-0.2-0.3-0.6,0.1-0.9l4.8-2.8c0.5-0.3,1.1-0.3,1.5-0.1l4.9,2.8
			c0.4,0.2,0.3,0.6-0.1,0.9l-4.8,2.8C357.7,272.1,357,272.1,356.6,271.9z"/>
		<path class="st10" d="M284.9,222l-4.9-2.8c-0.4-0.2-0.3-0.6,0.1-0.9l4.8-2.8c0.5-0.3,1.1-0.3,1.5-0.1l4.9,2.8
			c0.4,0.2,0.3,0.6-0.1,0.9l-4.8,2.8C286,222.2,285.3,222.3,284.9,222z"/>
		<path class="st10" d="M277.4,217.7l-4.9-2.8c-0.4-0.2-0.3-0.6,0.1-0.9l4.8-2.8c0.5-0.3,1.1-0.3,1.5-0.1l4.9,2.8
			c0.4,0.2,0.3,0.6-0.1,0.9l-4.8,2.8C278.5,217.9,277.8,217.9,277.4,217.7z"/>
		<path class="st10" d="M269.9,213.4l-4.9-2.8c-0.4-0.2-0.3-0.6,0.1-0.9l4.8-2.8c0.5-0.3,1.1-0.3,1.5-0.1l4.9,2.8
			c0.4,0.2,0.3,0.6-0.1,0.9l-4.8,2.8C271,213.6,270.3,213.6,269.9,213.4z"/>
		<path class="st10" d="M262.4,209.1l-4.9-2.8c-0.4-0.2-0.3-0.6,0.1-0.9l4.8-2.8c0.5-0.3,1.1-0.3,1.5-0.1l4.9,2.8
			c0.4,0.2,0.3,0.6-0.1,0.9L264,209C263.5,209.3,262.8,209.3,262.4,209.1z"/>
		<path class="st10" d="M270.1,204.6l-4.9-2.8c-0.4-0.2-0.3-0.6,0.1-0.9l1.6-0.9c0.5-0.3,1.1-0.3,1.5-0.1l4.9,2.8
			c0.4,0.2,0.3,0.6-0.1,0.9l-1.6,0.9C271.2,204.8,270.5,204.8,270.1,204.6z"/>
		<path class="st10" d="M279.9,210.3l-4.9-2.8c-0.4-0.2-0.3-0.6,0.1-0.9l1.6-0.9c0.5-0.3,1.1-0.3,1.5-0.1l4.9,2.8
			c0.4,0.2,0.3,0.6-0.1,0.9l-1.6,0.9C281,210.5,280.3,210.5,279.9,210.3z"/>
		<path class="st10" d="M287.4,214.6l-4.9-2.8c-0.4-0.2-0.3-0.6,0.1-0.9l1.6-0.9c0.5-0.3,1.1-0.3,1.5-0.1l4.9,2.8
			c0.4,0.2,0.3,0.6-0.1,0.9l-1.6,0.9C288.4,214.8,287.8,214.8,287.4,214.6z"/>
		<path class="st10" d="M294.8,218.9l-4.9-2.8c-0.4-0.2-0.3-0.6,0.1-0.9l1.6-0.9c0.5-0.3,1.1-0.3,1.5-0.1l4.9,2.8
			c0.4,0.2,0.3,0.6-0.1,0.9l-1.6,0.9C295.9,219.1,295.2,219.1,294.8,218.9z"/>
		<path class="st10" d="M302.3,223.2l-4.9-2.8c-0.4-0.2-0.3-0.6,0.1-0.9l1.6-0.9c0.5-0.3,1.1-0.3,1.5-0.1l4.9,2.8
			c0.4,0.2,0.3,0.6-0.1,0.9l-1.6,0.9C303.4,223.4,302.7,223.4,302.3,223.2z"/>
		<path class="st10" d="M344,247.2l-4.9-2.8c-0.4-0.2-0.3-0.6,0.1-0.9l1.6-0.9c0.5-0.3,1.1-0.3,1.5-0.1l4.9,2.8
			c0.4,0.2,0.3,0.6-0.1,0.9l-1.6,0.9C345,247.4,344.3,247.5,344,247.2z"/>
		<path class="st10" d="M351.4,251.5l-4.9-2.8c-0.4-0.2-0.3-0.6,0.1-0.9l1.6-0.9c0.5-0.3,1.1-0.3,1.5-0.1l4.9,2.8
			c0.4,0.2,0.3,0.6-0.1,0.9l-1.6,0.9C352.5,251.7,351.8,251.8,351.4,251.5z"/>
		<path class="st10" d="M358.9,255.9L354,253c-0.4-0.2-0.3-0.6,0.1-0.9l1.6-0.9c0.5-0.3,1.1-0.3,1.5-0.1l4.9,2.8
			c0.4,0.2,0.3,0.6-0.1,0.9l-1.6,0.9C359.9,256,359.3,256.1,358.9,255.9z"/>
		<path class="st10" d="M366.3,260.2l-4.9-2.8c-0.4-0.2-0.3-0.6,0.1-0.9l1.6-0.9c0.5-0.3,1.1-0.3,1.5-0.1l4.9,2.8
			c0.4,0.2,0.3,0.6-0.1,0.9l-1.6,0.9C367.4,260.4,366.7,260.4,366.3,260.2z"/>
		<path class="st10" d="M292.4,226.4l-4.9-2.8c-0.4-0.2-0.3-0.6,0.1-0.9l4.8-2.8c0.5-0.3,1.1-0.3,1.5-0.1l4.9,2.8
			c0.4,0.2,0.3,0.6-0.1,0.9l-4.8,2.8C293.5,226.6,292.8,226.6,292.4,226.4z"/>
		<path class="st10" d="M300,230.7l-4.9-2.8c-0.4-0.2-0.3-0.6,0.1-0.9l4.8-2.8c0.5-0.3,1.1-0.3,1.5-0.1l4.9,2.8
			c0.4,0.2,0.3,0.6-0.1,0.9l-4.8,2.8C301,230.9,300.4,231,300,230.7z"/>
		<path class="st10" d="M307.5,235.1l-4.9-2.8c-0.4-0.2-0.3-0.6,0.1-0.9l4.8-2.8c0.5-0.3,1.1-0.3,1.5-0.1l4.9,2.8
			c0.4,0.2,0.3,0.6-0.1,0.9L309,235C308.6,235.3,307.9,235.3,307.5,235.1z"/>
		<path class="st10" d="M315,239.4l-4.9-2.8c-0.4-0.2-0.3-0.6,0.1-0.9l4.8-2.8c0.5-0.3,1.1-0.3,1.5-0.1l4.9,2.8
			c0.4,0.2,0.3,0.6-0.1,0.9l-4.8,2.8C316.1,239.6,315.4,239.7,315,239.4z"/>
		<path class="st10" d="M322.6,243.8l-4.9-2.8c-0.4-0.2-0.3-0.6,0.1-0.9l4.8-2.8c0.5-0.3,1.1-0.3,1.5-0.1l4.9,2.8
			c0.4,0.2,0.3,0.6-0.1,0.9l-4.8,2.8C323.6,244,322.9,244,322.6,243.8z"/>
		<path class="st10" d="M330.1,248.1l-4.9-2.8c-0.4-0.2-0.3-0.6,0.1-0.9l4.8-2.8c0.5-0.3,1.1-0.3,1.5-0.1l4.9,2.8
			c0.4,0.2,0.3,0.6-0.1,0.9l-4.8,2.8C331.2,248.3,330.5,248.4,330.1,248.1z"/>
		<path class="st10" d="M337.6,252.5l-4.9-2.8c-0.4-0.2-0.3-0.6,0.1-0.9l4.8-2.8c0.5-0.3,1.1-0.3,1.5-0.1l4.9,2.8
			c0.4,0.2,0.3,0.6-0.1,0.9l-4.8,2.8C338.7,252.7,338,252.7,337.6,252.5z"/>
		<path class="st10" d="M345.1,256.8l-4.9-2.8c-0.4-0.2-0.3-0.6,0.1-0.9l4.8-2.8c0.5-0.3,1.1-0.3,1.5-0.1l4.9,2.8
			c0.4,0.2,0.3,0.6-0.1,0.9l-4.8,2.8C346.2,257,345.5,257,345.1,256.8z"/>
		<path class="st10" d="M352.7,261.2l-4.9-2.8c-0.4-0.2-0.3-0.6,0.1-0.9l4.8-2.8c0.5-0.3,1.1-0.3,1.5-0.1l4.9,2.8
			c0.4,0.2,0.3,0.6-0.1,0.9l-4.8,2.8C353.8,261.4,353.1,261.4,352.7,261.2z"/>
		<path class="st10" d="M249.4,226.9l-14.4-8.3c-0.4-0.2-0.3-0.6,0.1-0.9l4.8-2.8c0.5-0.3,1.1-0.3,1.5-0.1l14.4,8.3
			c0.4,0.2,0.3,0.6-0.1,0.9l-4.8,2.8C250.5,227.1,249.8,227.2,249.4,226.9z"/>
		<path class="st10" d="M341.9,280.3l-14.4-8.3c-0.4-0.2-0.3-0.6,0.1-0.9l4.8-2.8c0.5-0.3,1.1-0.3,1.5-0.1l14.4,8.3
			c0.4,0.2,0.3,0.6-0.1,0.9l-4.8,2.8C343,280.5,342.3,280.6,341.9,280.3z"/>
		<path class="st10" d="M311.8,272.6l-4.9-2.8c-0.4-0.2-0.3-0.6,0.1-0.9l5.8-3.3c0.5-0.3,1.1-0.3,1.5-0.1l4.9,2.8
			c0.4,0.2,0.3,0.6-0.1,0.9l-5.8,3.3C312.9,272.8,312.2,272.8,311.8,272.6z"/>
		<path class="st10" d="M257.1,241l-7.8-4.5c-0.4-0.2-0.3-0.6,0.1-0.9l5.8-3.3c0.5-0.3,1.1-0.3,1.5-0.1l7.8,4.5
			c0.4,0.2,0.3,0.6-0.1,0.9l-5.8,3.3C258.2,241.2,257.5,241.2,257.1,241z"/>
		<path class="st10" d="M304.5,268.4l-7.8-4.5c-0.4-0.2-0.3-0.6,0.1-0.9l5.8-3.3c0.5-0.3,1.1-0.3,1.5-0.1l7.8,4.5
			c0.4,0.2,0.3,0.6-0.1,0.9l-5.8,3.3C305.6,268.6,304.9,268.6,304.5,268.4z"/>
		<path class="st10" d="M268,247.3l-7.8-4.5c-0.4-0.2-0.3-0.6,0.1-0.9l5.8-3.3c0.5-0.3,1.1-0.3,1.5-0.1l7.8,4.5
			c0.4,0.2,0.3,0.6-0.1,0.9l-5.8,3.3C269,247.5,268.4,247.5,268,247.3z"/>
		<path class="st10" d="M267.6,238.5l33.9,19.6c0.4,0.2,0.4,0.6,0,0.9l-5.9,3.4c-0.4,0.2-1.1,0.2-1.5,0l-33.9-19.6L267.6,238.5z"/>
		<path class="st10" d="M332.8,280.4l5.4,3.1c0.3,0.2,0.3,0.5-0.1,0.7l-2.4,1.4c-0.4,0.2-0.9,0.2-1.3,0.1l-5.4-3.1
			c-0.3-0.2-0.3-0.5,0.1-0.7l2.4-1.4C331.9,280.3,332.5,280.3,332.8,280.4z"/>
		<path class="st10" d="M325.2,276.1l5.4,3.1c0.3,0.2,0.3,0.5-0.1,0.7l-2.4,1.4c-0.4,0.2-0.9,0.2-1.3,0.1l-5.4-3.1
			c-0.3-0.2-0.3-0.5,0.1-0.7l2.4-1.4C324.4,275.9,324.9,275.9,325.2,276.1z"/>
		<path class="st10" d="M317.7,271.7l5.4,3.1c0.3,0.2,0.3,0.5-0.1,0.7l-2.4,1.4c-0.4,0.2-0.9,0.2-1.3,0.1l-5.4-3.1
			c-0.3-0.2-0.3-0.5,0.1-0.7l2.4-1.4C316.8,271.5,317.4,271.5,317.7,271.7z"/>
		<path class="st10" d="M329.4,273.7l5.4,3.1c0.3,0.2,0.3,0.5-0.1,0.7l-2.4,1.4c-0.4,0.2-0.9,0.2-1.3,0.1l-5.4-3.1
			c-0.3-0.2-0.3-0.5,0.1-0.7l2.4-1.4C328.5,273.5,329.1,273.5,329.4,273.7z"/>
	</g>
	<g class="st9">
		<path class="st10" d="M231.6,226.3l-4.9-2.8c-0.4-0.2-0.3-0.6,0.1-0.9l5.8-3.3c0.5-0.3,1.1-0.3,1.5-0.1l4.9,2.8
			c0.4,0.2,0.3,0.6-0.1,0.9l-5.8,3.3C232.7,226.4,232,226.5,231.6,226.3z"/>
		<path class="st10" d="M239.1,230.6l-4.9-2.8c-0.4-0.2-0.3-0.6,0.1-0.9l5.8-3.3c0.5-0.3,1.1-0.3,1.5-0.1l4.9,2.8
			c0.4,0.2,0.3,0.6-0.1,0.9l-5.8,3.3C240.2,230.8,239.5,230.8,239.1,230.6z"/>
		<path class="st10" d="M246.6,234.9l-4.9-2.8c-0.4-0.2-0.3-0.6,0.1-0.9l5.8-3.3c0.5-0.3,1.1-0.3,1.5-0.1l4.9,2.8
			c0.4,0.2,0.3,0.6-0.1,0.9l-5.8,3.3C247.7,235.1,247,235.2,246.6,234.9z"/>
		<path class="st10" d="M257.1,231.4l-4.9-2.8c-0.4-0.2-0.3-0.6,0.1-0.9l4.8-2.8c0.5-0.3,1.1-0.3,1.5-0.1l4.9,2.8
			c0.4,0.2,0.3,0.6-0.1,0.9l-4.8,2.8C258.1,231.6,257.4,231.6,257.1,231.4z"/>
		<path class="st10" d="M264.6,235.7l-4.9-2.8c-0.4-0.2-0.3-0.6,0.1-0.9l4.8-2.8c0.5-0.3,1.1-0.3,1.5-0.1l4.9,2.8
			c0.4,0.2,0.3,0.6-0.1,0.9l-4.8,2.8C265.7,235.9,265,235.9,264.6,235.7z"/>
		<path class="st10" d="M272.1,240.1l-4.9-2.8c-0.4-0.2-0.3-0.6,0.1-0.9l4.8-2.8c0.5-0.3,1.1-0.3,1.5-0.1l4.9,2.8
			c0.4,0.2,0.3,0.6-0.1,0.9l-4.8,2.8C273.2,240.2,272.5,240.3,272.1,240.1z"/>
		<path class="st10" d="M279.6,244.4l-4.9-2.8c-0.4-0.2-0.3-0.6,0.1-0.9l4.8-2.8c0.5-0.3,1.1-0.3,1.5-0.1l4.9,2.8
			c0.4,0.2,0.3,0.6-0.1,0.9l-4.8,2.8C280.7,244.6,280,244.6,279.6,244.4z"/>
		<path class="st10" d="M287.2,248.7l-4.9-2.8c-0.4-0.2-0.3-0.6,0.1-0.9l4.8-2.8c0.5-0.3,1.1-0.3,1.5-0.1l4.9,2.8
			c0.4,0.2,0.3,0.6-0.1,0.9l-4.8,2.8C288.3,248.9,287.6,249,287.2,248.7z"/>
		<path class="st10" d="M294.7,253.1l-4.9-2.8c-0.4-0.2-0.3-0.6,0.1-0.9l4.8-2.8c0.5-0.3,1.1-0.3,1.5-0.1l4.9,2.8
			c0.4,0.2,0.3,0.6-0.1,0.9l-4.8,2.8C295.8,253.3,295.1,253.3,294.7,253.1z"/>
		<path class="st10" d="M302.2,257.4l-4.9-2.8c-0.4-0.2-0.3-0.6,0.1-0.9l4.8-2.8c0.5-0.3,1.1-0.3,1.5-0.1l4.9,2.8
			c0.4,0.2,0.3,0.6-0.1,0.9l-4.8,2.8C303.3,257.6,302.6,257.7,302.2,257.4z"/>
		<path class="st10" d="M309.8,261.8l-4.9-2.8c-0.4-0.2-0.3-0.6,0.1-0.9l4.8-2.8c0.5-0.3,1.1-0.3,1.5-0.1l4.9,2.8
			c0.4,0.2,0.3,0.6-0.1,0.9l-4.8,2.8C310.8,262,310.2,262,309.8,261.8z"/>
		<path class="st10" d="M317.3,266.1l-4.9-2.8c-0.4-0.2-0.3-0.6,0.1-0.9l4.8-2.8c0.5-0.3,1.1-0.3,1.5-0.1l4.9,2.8
			c0.4,0.2,0.3,0.6-0.1,0.9l-4.8,2.8C318.4,266.3,317.7,266.4,317.3,266.1z"/>
		<path class="st10" d="M324.8,270.5l-4.9-2.8c-0.4-0.2-0.3-0.6,0.1-0.9l4.8-2.8c0.5-0.3,1.1-0.3,1.5-0.1l4.9,2.8
			c0.4,0.2,0.3,0.6-0.1,0.9l-4.8,2.8C325.9,270.7,325.2,270.7,324.8,270.5z"/>
		<path class="st10" d="M268.2,229.3l-4.9-2.8c-0.4-0.2-0.3-0.6,0.1-0.9l4.8-2.8c0.5-0.3,1.1-0.3,1.5-0.1l4.9,2.8
			c0.4,0.2,0.3,0.6-0.1,0.9l-4.8,2.8C269.2,229.5,268.5,229.5,268.2,229.3z"/>
		<path class="st10" d="M260.5,224.9l-4.9-2.8c-0.4-0.2-0.3-0.6,0.1-0.9l4.8-2.8c0.5-0.3,1.1-0.3,1.5-0.1l4.9,2.8
			c0.4,0.2,0.3,0.6-0.1,0.9l-4.8,2.8C261.6,225.1,260.9,225.1,260.5,224.9z"/>
		<path class="st10" d="M252.9,220.5l-10.5-6.1c-0.4-0.2-0.3-0.6,0.1-0.9l4.8-2.8c0.5-0.3,1.1-0.3,1.5-0.1l10.5,6.1
			c0.4,0.2,0.3,0.6-0.1,0.9l-4.8,2.8C253.9,220.7,253.2,220.7,252.9,220.5z"/>
		<path class="st10" d="M258.2,215.1l-8.5-4.9c-0.4-0.2-0.3-0.6,0.1-0.9l4.8-2.8c0.5-0.3,1.1-0.3,1.5-0.1l8.5,4.9
			c0.4,0.2,0.3,0.6-0.1,0.9l-4.8,2.8C259.3,215.3,258.6,215.3,258.2,215.1z"/>
		<path class="st10" d="M275.7,233.6l-4.9-2.8c-0.4-0.2-0.3-0.6,0.1-0.9l4.8-2.8c0.5-0.3,1.1-0.3,1.5-0.1l4.9,2.8
			c0.4,0.2,0.3,0.6-0.1,0.9l-4.8,2.8C276.8,233.8,276.1,233.9,275.7,233.6z"/>
		<path class="st10" d="M283.2,238l-4.9-2.8c-0.4-0.2-0.3-0.6,0.1-0.9l4.8-2.8c0.5-0.3,1.1-0.3,1.5-0.1l4.9,2.8
			c0.4,0.2,0.3,0.6-0.1,0.9l-4.8,2.8C284.3,238.2,283.6,238.2,283.2,238z"/>
		<path class="st10" d="M290.7,242.3l-4.9-2.8c-0.4-0.2-0.3-0.6,0.1-0.9l4.8-2.8c0.5-0.3,1.1-0.3,1.5-0.1l4.9,2.8
			c0.4,0.2,0.3,0.6-0.1,0.9l-4.8,2.8C291.8,242.5,291.1,242.6,290.7,242.3z"/>
		<path class="st10" d="M298.3,246.7l-4.9-2.8c-0.4-0.2-0.3-0.6,0.1-0.9l4.8-2.8c0.5-0.3,1.1-0.3,1.5-0.1l4.9,2.8
			c0.4,0.2,0.3,0.6-0.1,0.9l-4.8,2.8C299.3,246.9,298.7,246.9,298.3,246.7z"/>
		<path class="st10" d="M305.8,251l-4.9-2.8c-0.4-0.2-0.3-0.6,0.1-0.9l4.8-2.8c0.5-0.3,1.1-0.3,1.5-0.1l4.9,2.8
			c0.4,0.2,0.3,0.6-0.1,0.9l-4.8,2.8C306.9,251.2,306.2,251.3,305.8,251z"/>
		<path class="st10" d="M313.3,255.4l-4.9-2.8c-0.4-0.2-0.3-0.6,0.1-0.9l4.8-2.8c0.5-0.3,1.1-0.3,1.5-0.1l4.9,2.8
			c0.4,0.2,0.3,0.6-0.1,0.9l-4.8,2.8C314.4,255.6,313.7,255.6,313.3,255.4z"/>
		<path class="st10" d="M320.9,259.7l-4.9-2.8c-0.4-0.2-0.3-0.6,0.1-0.9l4.8-2.8c0.5-0.3,1.1-0.3,1.5-0.1l4.9,2.8
			c0.4,0.2,0.3,0.6-0.1,0.9l-4.8,2.8C321.9,259.9,321.3,260,320.9,259.7z"/>
		<path class="st10" d="M328.4,264.1l-4.9-2.8c-0.4-0.2-0.3-0.6,0.1-0.9l4.8-2.8c0.5-0.3,1.1-0.3,1.5-0.1l4.9,2.8
			c0.4,0.2,0.3,0.6-0.1,0.9l-4.8,2.8C329.5,264.3,328.8,264.3,328.4,264.1z"/>
		<path class="st10" d="M335.9,268.4l-4.9-2.8c-0.4-0.2-0.3-0.6,0.1-0.9l4.8-2.8c0.5-0.3,1.1-0.3,1.5-0.1l4.9,2.8
			c0.4,0.2,0.3,0.6-0.1,0.9l-4.8,2.8C337,268.6,336.3,268.7,335.9,268.4z"/>
		<path class="st10" d="M349.3,276.2l-10.6-6.1c-0.4-0.2-0.3-0.6,0.1-0.9l4.8-2.8c0.5-0.3,1.1-0.3,1.5-0.1l10.6,6.1
			c0.4,0.2,0.3,0.6-0.1,0.9l-4.8,2.8C350.4,276.4,349.7,276.4,349.3,276.2z"/>
		<path class="st10" d="M364,267.7l-9-5.2c-0.4-0.2-0.3-0.6,0.1-0.9l4.8-2.8c0.5-0.3,1.1-0.3,1.5-0.1l9,5.2c0.4,0.2,0.3,0.6-0.1,0.9
			l-4.8,2.8C365,267.9,364.4,267.9,364,267.7z"/>
		<path class="st10" d="M288.9,232.8L284,230c-0.4-0.2-0.3-0.6,0.1-0.9l4.8-2.8c0.5-0.3,1.1-0.3,1.5-0.1l4.9,2.8
			c0.4,0.2,0.3,0.6-0.1,0.9l-4.8,2.8C289.9,233,289.3,233,288.9,232.8z"/>
		<path class="st10" d="M281.2,228.3l-4.9-2.8c-0.4-0.2-0.3-0.6,0.1-0.9l4.8-2.8c0.5-0.3,1.1-0.3,1.5-0.1l4.9,2.8
			c0.4,0.2,0.3,0.6-0.1,0.9l-4.8,2.8C282.2,228.5,281.5,228.6,281.2,228.3z"/>
		<path class="st10" d="M273.4,223.9l-4.9-2.8c-0.4-0.2-0.3-0.6,0.1-0.9l4.8-2.8c0.5-0.3,1.1-0.3,1.5-0.1l4.9,2.8
			c0.4,0.2,0.3,0.6-0.1,0.9l-4.8,2.8C274.5,224.1,273.8,224.1,273.4,223.9z"/>
		<path class="st10" d="M265.7,219.4l-4.9-2.8c-0.4-0.2-0.3-0.6,0.1-0.9l4.8-2.8c0.5-0.3,1.1-0.3,1.5-0.1l4.9,2.8
			c0.4,0.2,0.3,0.6-0.1,0.9l-4.8,2.8C266.8,219.6,266.1,219.7,265.7,219.4z"/>
		<path class="st10" d="M296.4,237.1l-4.9-2.8c-0.4-0.2-0.3-0.6,0.1-0.9l4.8-2.8c0.5-0.3,1.1-0.3,1.5-0.1l4.9,2.8
			c0.4,0.2,0.3,0.6-0.1,0.9l-4.8,2.8C297.5,237.3,296.8,237.4,296.4,237.1z"/>
		<path class="st10" d="M303.9,241.5l-4.9-2.8c-0.4-0.2-0.3-0.6,0.1-0.9l4.8-2.8c0.5-0.3,1.1-0.3,1.5-0.1l4.9,2.8
			c0.4,0.2,0.3,0.6-0.1,0.9l-4.8,2.8C305,241.7,304.3,241.7,303.9,241.5z"/>
		<path class="st10" d="M311.5,245.8l-4.9-2.8c-0.4-0.2-0.3-0.6,0.1-0.9l4.8-2.8c0.5-0.3,1.1-0.3,1.5-0.1l4.9,2.8
			c0.4,0.2,0.3,0.6-0.1,0.9l-4.8,2.8C312.5,246,311.9,246.1,311.5,245.8z"/>
		<path class="st10" d="M319,250.2l-4.9-2.8c-0.4-0.2-0.3-0.6,0.1-0.9l4.8-2.8c0.5-0.3,1.1-0.3,1.5-0.1l4.9,2.8
			c0.4,0.2,0.3,0.6-0.1,0.9l-4.8,2.8C320.1,250.4,319.4,250.4,319,250.2z"/>
		<path class="st10" d="M326.5,254.5l-4.9-2.8c-0.4-0.2-0.3-0.6,0.1-0.9l4.8-2.8c0.5-0.3,1.1-0.3,1.5-0.1l4.9,2.8
			c0.4,0.2,0.3,0.6-0.1,0.9l-4.8,2.8C327.6,254.7,326.9,254.8,326.5,254.5z"/>
		<path class="st10" d="M334.1,258.9l-4.9-2.8c-0.4-0.2-0.3-0.6,0.1-0.9l4.8-2.8c0.5-0.3,1.1-0.3,1.5-0.1l4.9,2.8
			c0.4,0.2,0.3,0.6-0.1,0.9l-4.8,2.8C335.1,259.1,334.4,259.1,334.1,258.9z"/>
		<path class="st10" d="M341.6,263.2l-4.9-2.8c-0.4-0.2-0.3-0.6,0.1-0.9l4.8-2.8c0.5-0.3,1.1-0.3,1.5-0.1l4.9,2.8
			c0.4,0.2,0.3,0.6-0.1,0.9l-4.8,2.8C342.7,263.4,342,263.5,341.6,263.2z"/>
		<path class="st10" d="M349.1,267.6l-4.9-2.8c-0.4-0.2-0.3-0.6,0.1-0.9l4.8-2.8c0.5-0.3,1.1-0.3,1.5-0.1l4.9,2.8
			c0.4,0.2,0.3,0.6-0.1,0.9l-4.8,2.8C350.2,267.8,349.5,267.8,349.1,267.6z"/>
		<path class="st10" d="M356.6,271.9l-4.9-2.8c-0.4-0.2-0.3-0.6,0.1-0.9l4.8-2.8c0.5-0.3,1.1-0.3,1.5-0.1l4.9,2.8
			c0.4,0.2,0.3,0.6-0.1,0.9l-4.8,2.8C357.7,272.1,357,272.1,356.6,271.9z"/>
		<path class="st10" d="M284.9,222l-4.9-2.8c-0.4-0.2-0.3-0.6,0.1-0.9l4.8-2.8c0.5-0.3,1.1-0.3,1.5-0.1l4.9,2.8
			c0.4,0.2,0.3,0.6-0.1,0.9l-4.8,2.8C286,222.2,285.3,222.3,284.9,222z"/>
		<path class="st10" d="M277.4,217.7l-4.9-2.8c-0.4-0.2-0.3-0.6,0.1-0.9l4.8-2.8c0.5-0.3,1.1-0.3,1.5-0.1l4.9,2.8
			c0.4,0.2,0.3,0.6-0.1,0.9l-4.8,2.8C278.5,217.9,277.8,217.9,277.4,217.7z"/>
		<path class="st10" d="M269.9,213.4l-4.9-2.8c-0.4-0.2-0.3-0.6,0.1-0.9l4.8-2.8c0.5-0.3,1.1-0.3,1.5-0.1l4.9,2.8
			c0.4,0.2,0.3,0.6-0.1,0.9l-4.8,2.8C271,213.6,270.3,213.6,269.9,213.4z"/>
		<path class="st10" d="M262.4,209.1l-4.9-2.8c-0.4-0.2-0.3-0.6,0.1-0.9l4.8-2.8c0.5-0.3,1.1-0.3,1.5-0.1l4.9,2.8
			c0.4,0.2,0.3,0.6-0.1,0.9L264,209C263.5,209.3,262.8,209.3,262.4,209.1z"/>
		<path class="st10" d="M270.1,204.6l-4.9-2.8c-0.4-0.2-0.3-0.6,0.1-0.9l1.6-0.9c0.5-0.3,1.1-0.3,1.5-0.1l4.9,2.8
			c0.4,0.2,0.3,0.6-0.1,0.9l-1.6,0.9C271.2,204.8,270.5,204.8,270.1,204.6z"/>
		<path class="st10" d="M279.9,210.3l-4.9-2.8c-0.4-0.2-0.3-0.6,0.1-0.9l1.6-0.9c0.5-0.3,1.1-0.3,1.5-0.1l4.9,2.8
			c0.4,0.2,0.3,0.6-0.1,0.9l-1.6,0.9C281,210.5,280.3,210.5,279.9,210.3z"/>
		<path class="st10" d="M287.4,214.6l-4.9-2.8c-0.4-0.2-0.3-0.6,0.1-0.9l1.6-0.9c0.5-0.3,1.1-0.3,1.5-0.1l4.9,2.8
			c0.4,0.2,0.3,0.6-0.1,0.9l-1.6,0.9C288.4,214.8,287.8,214.8,287.4,214.6z"/>
		<path class="st10" d="M294.8,218.9l-4.9-2.8c-0.4-0.2-0.3-0.6,0.1-0.9l1.6-0.9c0.5-0.3,1.1-0.3,1.5-0.1l4.9,2.8
			c0.4,0.2,0.3,0.6-0.1,0.9l-1.6,0.9C295.9,219.1,295.2,219.1,294.8,218.9z"/>
		<path class="st10" d="M302.3,223.2l-4.9-2.8c-0.4-0.2-0.3-0.6,0.1-0.9l1.6-0.9c0.5-0.3,1.1-0.3,1.5-0.1l4.9,2.8
			c0.4,0.2,0.3,0.6-0.1,0.9l-1.6,0.9C303.4,223.4,302.7,223.4,302.3,223.2z"/>
		<path class="st10" d="M344,247.2l-4.9-2.8c-0.4-0.2-0.3-0.6,0.1-0.9l1.6-0.9c0.5-0.3,1.1-0.3,1.5-0.1l4.9,2.8
			c0.4,0.2,0.3,0.6-0.1,0.9l-1.6,0.9C345,247.4,344.3,247.5,344,247.2z"/>
		<path class="st10" d="M351.4,251.5l-4.9-2.8c-0.4-0.2-0.3-0.6,0.1-0.9l1.6-0.9c0.5-0.3,1.1-0.3,1.5-0.1l4.9,2.8
			c0.4,0.2,0.3,0.6-0.1,0.9l-1.6,0.9C352.5,251.7,351.8,251.8,351.4,251.5z"/>
		<path class="st10" d="M358.9,255.9L354,253c-0.4-0.2-0.3-0.6,0.1-0.9l1.6-0.9c0.5-0.3,1.1-0.3,1.5-0.1l4.9,2.8
			c0.4,0.2,0.3,0.6-0.1,0.9l-1.6,0.9C359.9,256,359.3,256.1,358.9,255.9z"/>
		<path class="st10" d="M366.3,260.2l-4.9-2.8c-0.4-0.2-0.3-0.6,0.1-0.9l1.6-0.9c0.5-0.3,1.1-0.3,1.5-0.1l4.9,2.8
			c0.4,0.2,0.3,0.6-0.1,0.9l-1.6,0.9C367.4,260.4,366.7,260.4,366.3,260.2z"/>
		<path class="st10" d="M292.4,226.4l-4.9-2.8c-0.4-0.2-0.3-0.6,0.1-0.9l4.8-2.8c0.5-0.3,1.1-0.3,1.5-0.1l4.9,2.8
			c0.4,0.2,0.3,0.6-0.1,0.9l-4.8,2.8C293.5,226.6,292.8,226.6,292.4,226.4z"/>
		<path class="st10" d="M300,230.7l-4.9-2.8c-0.4-0.2-0.3-0.6,0.1-0.9l4.8-2.8c0.5-0.3,1.1-0.3,1.5-0.1l4.9,2.8
			c0.4,0.2,0.3,0.6-0.1,0.9l-4.8,2.8C301,230.9,300.4,231,300,230.7z"/>
		<path class="st10" d="M307.5,235.1l-4.9-2.8c-0.4-0.2-0.3-0.6,0.1-0.9l4.8-2.8c0.5-0.3,1.1-0.3,1.5-0.1l4.9,2.8
			c0.4,0.2,0.3,0.6-0.1,0.9L309,235C308.6,235.3,307.9,235.3,307.5,235.1z"/>
		<path class="st10" d="M315,239.4l-4.9-2.8c-0.4-0.2-0.3-0.6,0.1-0.9l4.8-2.8c0.5-0.3,1.1-0.3,1.5-0.1l4.9,2.8
			c0.4,0.2,0.3,0.6-0.1,0.9l-4.8,2.8C316.1,239.6,315.4,239.7,315,239.4z"/>
		<path class="st10" d="M322.6,243.8l-4.9-2.8c-0.4-0.2-0.3-0.6,0.1-0.9l4.8-2.8c0.5-0.3,1.1-0.3,1.5-0.1l4.9,2.8
			c0.4,0.2,0.3,0.6-0.1,0.9l-4.8,2.8C323.6,244,322.9,244,322.6,243.8z"/>
		<path class="st10" d="M330.1,248.1l-4.9-2.8c-0.4-0.2-0.3-0.6,0.1-0.9l4.8-2.8c0.5-0.3,1.1-0.3,1.5-0.1l4.9,2.8
			c0.4,0.2,0.3,0.6-0.1,0.9l-4.8,2.8C331.2,248.3,330.5,248.4,330.1,248.1z"/>
		<path class="st10" d="M337.6,252.5l-4.9-2.8c-0.4-0.2-0.3-0.6,0.1-0.9l4.8-2.8c0.5-0.3,1.1-0.3,1.5-0.1l4.9,2.8
			c0.4,0.2,0.3,0.6-0.1,0.9l-4.8,2.8C338.7,252.7,338,252.7,337.6,252.5z"/>
		<path class="st10" d="M345.1,256.8l-4.9-2.8c-0.4-0.2-0.3-0.6,0.1-0.9l4.8-2.8c0.5-0.3,1.1-0.3,1.5-0.1l4.9,2.8
			c0.4,0.2,0.3,0.6-0.1,0.9l-4.8,2.8C346.2,257,345.5,257,345.1,256.8z"/>
		<path class="st10" d="M352.7,261.2l-4.9-2.8c-0.4-0.2-0.3-0.6,0.1-0.9l4.8-2.8c0.5-0.3,1.1-0.3,1.5-0.1l4.9,2.8
			c0.4,0.2,0.3,0.6-0.1,0.9l-4.8,2.8C353.8,261.4,353.1,261.4,352.7,261.2z"/>
		<path class="st10" d="M249.4,226.9l-14.4-8.3c-0.4-0.2-0.3-0.6,0.1-0.9l4.8-2.8c0.5-0.3,1.1-0.3,1.5-0.1l14.4,8.3
			c0.4,0.2,0.3,0.6-0.1,0.9l-4.8,2.8C250.5,227.1,249.8,227.2,249.4,226.9z"/>
		<path class="st10" d="M341.9,280.3l-14.4-8.3c-0.4-0.2-0.3-0.6,0.1-0.9l4.8-2.8c0.5-0.3,1.1-0.3,1.5-0.1l14.4,8.3
			c0.4,0.2,0.3,0.6-0.1,0.9l-4.8,2.8C343,280.5,342.3,280.6,341.9,280.3z"/>
		<path class="st10" d="M311.8,272.6l-4.9-2.8c-0.4-0.2-0.3-0.6,0.1-0.9l5.8-3.3c0.5-0.3,1.1-0.3,1.5-0.1l4.9,2.8
			c0.4,0.2,0.3,0.6-0.1,0.9l-5.8,3.3C312.9,272.8,312.2,272.8,311.8,272.6z"/>
		<path class="st10" d="M257.1,241l-7.8-4.5c-0.4-0.2-0.3-0.6,0.1-0.9l5.8-3.3c0.5-0.3,1.1-0.3,1.5-0.1l7.8,4.5
			c0.4,0.2,0.3,0.6-0.1,0.9l-5.8,3.3C258.2,241.2,257.5,241.2,257.1,241z"/>
		<path class="st10" d="M304.5,268.4l-7.8-4.5c-0.4-0.2-0.3-0.6,0.1-0.9l5.8-3.3c0.5-0.3,1.1-0.3,1.5-0.1l7.8,4.5
			c0.4,0.2,0.3,0.6-0.1,0.9l-5.8,3.3C305.6,268.6,304.9,268.6,304.5,268.4z"/>
		<path class="st10" d="M268,247.3l-7.8-4.5c-0.4-0.2-0.3-0.6,0.1-0.9l5.8-3.3c0.5-0.3,1.1-0.3,1.5-0.1l7.8,4.5
			c0.4,0.2,0.3,0.6-0.1,0.9l-5.8,3.3C269,247.5,268.4,247.5,268,247.3z"/>
		<path class="st10" d="M267.6,238.5l33.9,19.6c0.4,0.2,0.4,0.6,0,0.9l-5.9,3.4c-0.4,0.2-1.1,0.2-1.5,0l-33.9-19.6L267.6,238.5z"/>
		<path class="st10" d="M332.8,280.4l5.4,3.1c0.3,0.2,0.3,0.5-0.1,0.7l-2.4,1.4c-0.4,0.2-0.9,0.2-1.3,0.1l-5.4-3.1
			c-0.3-0.2-0.3-0.5,0.1-0.7l2.4-1.4C331.9,280.3,332.5,280.3,332.8,280.4z"/>
		<path class="st10" d="M325.2,276.1l5.4,3.1c0.3,0.2,0.3,0.5-0.1,0.7l-2.4,1.4c-0.4,0.2-0.9,0.2-1.3,0.1l-5.4-3.1
			c-0.3-0.2-0.3-0.5,0.1-0.7l2.4-1.4C324.4,275.9,324.9,275.9,325.2,276.1z"/>
		<path class="st10" d="M317.7,271.7l5.4,3.1c0.3,0.2,0.3,0.5-0.1,0.7l-2.4,1.4c-0.4,0.2-0.9,0.2-1.3,0.1l-5.4-3.1
			c-0.3-0.2-0.3-0.5,0.1-0.7l2.4-1.4C316.8,271.5,317.4,271.5,317.7,271.7z"/>
		<path class="st10" d="M329.4,273.7l5.4,3.1c0.3,0.2,0.3,0.5-0.1,0.7l-2.4,1.4c-0.4,0.2-0.9,0.2-1.3,0.1l-5.4-3.1
			c-0.3-0.2-0.3-0.5,0.1-0.7l2.4-1.4C328.5,273.5,329.1,273.5,329.4,273.7z"/>
	</g>
	<radialGradient id="SVGID_8_" cx="240.8779" cy="107.1847" r="223.3409" gradientUnits="userSpaceOnUse">
		<stop  offset="0" style="stop-color:#E39A65"/>
		<stop  offset="0.4742" style="stop-color:#A92FFB"/>
		<stop  offset="0.5875" style="stop-color:#891CFB"/>
		<stop  offset="0.7262" style="stop-color:#6507FA"/>
		<stop  offset="1" style="stop-color:#3919BB"/>
	</radialGradient>
	<path class="st11" d="M409.1,264.9l-143.9-83.1c-2.3-1.3-3.4-4.5-2.6-7.1l32.5-105.6c0.8-2.6,3.3-3.7,5.6-2.4l143.9,83.1
		c2.3,1.3,3.4,4.5,2.6,7.1l-32.5,105.6C413.8,265.1,411.3,266.2,409.1,264.9z"/>
	<linearGradient id="SVGID_9_" gradientUnits="userSpaceOnUse" x1="265.4256" y1="165.8121" x2="444.392" y2="165.8121">
		<stop  offset="0" style="stop-color:#3919BB"/>
		<stop  offset="1" style="stop-color:#6507FA"/>
	</linearGradient>
	<path class="st12" d="M407.7,261.2l-139.5-80.6c-2.2-1.2-3.3-4.3-2.5-6.8l31.1-101c0.8-2.5,3.2-3.5,5.3-2.3l139.5,80.6
		c2.2,1.2,3.3,4.3,2.5,6.8l-31.1,101C412.3,261.4,409.9,262.4,407.7,261.2z"/>
	<path class="st13" d="M407.7,261.2l-139.5-80.6c-2.2-1.2-3.3-4.3-2.5-6.8l31.1-101c0.8-2.5,3.2-3.5,5.3-2.3l139.5,80.6
		c2.2,1.2,3.3,4.3,2.5,6.8l-31.1,101C412.3,261.4,409.9,262.4,407.7,261.2z"/>
	<path class="st13" d="M407.7,261.2l-139.5-80.6c-2.2-1.2-3.3-4.3-2.5-6.8l31.1-101c0.8-2.5,3.2-3.5,5.3-2.3l139.5,80.6
		c2.2,1.2,3.3,4.3,2.5,6.8l-31.1,101C412.3,261.4,409.9,262.4,407.7,261.2z"/>
	<path class="st14" d="M400.2,230.3l-94.5-54.5c-1.5-0.9-2.3-2.9-1.7-4.7l21.4-69.4c0.5-1.7,2.2-2.4,3.6-1.6l94.5,54.5
		c1.5,0.9,2.3,2.9,1.7,4.7l-21.4,69.4C403.4,230.5,401.7,231.2,400.2,230.3z"/>
	<g>
		<radialGradient id="SVGID_10_" cx="159.3462" cy="59.4914" r="347.8475" gradientUnits="userSpaceOnUse">
			<stop  offset="0" style="stop-color:#E39A65"/>
			<stop  offset="0.4742" style="stop-color:#A92FFB"/>
			<stop  offset="0.5875" style="stop-color:#891CFB"/>
			<stop  offset="0.7262" style="stop-color:#6507FA"/>
			<stop  offset="1" style="stop-color:#3919BB"/>
		</radialGradient>
		<path class="st15" d="M387.5,232L293,177.4c-1.5-0.9-2.3-2.9-1.7-4.7l21.4-69.4c0.5-1.7,2.2-2.4,3.6-1.6l94.5,54.5
			c1.5,0.9,2.3,2.9,1.7,4.7l-21.4,69.4C390.6,232.1,389,232.8,387.5,232z"/>
	</g>
	<g class="st16">
		<path class="st10" d="M387.5,232L293,177.4c-1.5-0.9-2.3-2.9-1.7-4.7l21.4-69.4c0.5-1.7,2.2-2.4,3.6-1.6l94.5,54.5
			c1.5,0.9,2.3,2.9,1.7,4.7l-21.4,69.4C390.6,232.1,389,232.8,387.5,232z"/>
	</g>
	<path class="st8" d="M410.7,156.4l-94.5-54.5c-0.9-0.5-1.9-0.5-2.7,0.1c0.4,0,0.9,0.1,1.4,0.3l94.5,54.5c1.5,0.9,2.3,2.9,1.7,4.7
		l-21.4,69.4c-0.2,0.6-0.5,1.1-1,1.5c1,0,1.9-0.7,2.3-1.9l21.4-69.4C413,159.3,412.2,157.2,410.7,156.4z"/>
	<path class="st13" d="M268.3,288.6c-1.3,0-2.5-0.3-3.5-0.8v0L227,265.9c-1-0.6-1.6-1.4-1.6-2.3c0-1.1,0.8-2.1,2.1-2.9l19.5-11.2
		c2.4-1.4,5.9-1.5,8-0.3l37.8,21.8c1,0.6,1.6,1.4,1.6,2.3c0,1.1-0.8,2.1-2.1,2.9l-19.5,11.2C271.5,288.2,269.9,288.6,268.3,288.6z
		 M251.5,249.4c-1.4,0-2.8,0.3-3.9,1l-19.5,11.2c-1,0.6-1.5,1.3-1.5,1.9c0,0.7,0.5,1.1,1,1.4l37.8,21.9c1.7,1,4.9,0.9,6.9-0.3
		l19.5-11.2c1-0.6,1.5-1.3,1.5-1.9c0-0.7-0.5-1.1-1-1.4l-37.8-21.8C253.6,249.7,252.6,249.4,251.5,249.4z"/>
</g>
<g>
	<g>
		<path class="st8" d="M339.3,138.2l-5.8-3.4c-0.5-0.3-0.8-1.1-0.6-1.7l0,0c0.2-0.6,0.8-0.9,1.3-0.5l5.8,3.4
			c0.5,0.3,0.8,1.1,0.6,1.7l0,0C340.4,138.3,339.8,138.5,339.3,138.2z"/>
		<path class="st8" d="M353.2,146.3l-8.6-5c-0.5-0.3-0.8-1.1-0.6-1.7l0,0c0.2-0.6,0.8-0.9,1.3-0.5l8.6,5c0.5,0.3,0.8,1.1,0.6,1.7
			l0,0C354.3,146.3,353.7,146.6,353.2,146.3z"/>
		<path class="st8" d="M327.5,164.2l-5.8-3.4c-0.5-0.3-0.8-1.1-0.6-1.7l0,0c0.2-0.6,0.8-0.9,1.3-0.5l5.8,3.4
			c0.5,0.3,0.8,1.1,0.6,1.7l0,0C328.6,164.3,328.1,164.5,327.5,164.2z"/>
		<path class="st8" d="M339.9,171.4l-8.6-5c-0.5-0.3-0.8-1.1-0.6-1.7l0,0c0.2-0.6,0.8-0.9,1.3-0.5l8.6,5c0.5,0.3,0.8,1.1,0.6,1.7
			l0,0C341,171.5,340.5,171.7,339.9,171.4z"/>
		<path class="st8" d="M321.8,133.6l-3.6-2.1c-0.5-0.3-0.8-1.1-0.6-1.7l0,0c0.2-0.6,0.8-0.9,1.3-0.5l3.6,2.1
			c0.5,0.3,0.8,1.1,0.6,1.7l0,0C322.9,133.7,322.3,133.9,321.8,133.6z"/>
		<path class="st8" d="M332.8,145.4l-11.1-6.4c-0.5-0.3-0.8-1.1-0.6-1.7l0,0c0.2-0.6,0.8-0.9,1.3-0.5l11.1,6.4
			c0.5,0.3,0.8,1.1,0.6,1.7l0,0C333.9,145.5,333.3,145.7,332.8,145.4z"/>
		<path class="st8" d="M322.5,150.4l-3.6-2.1c-0.5-0.3-0.8-1.1-0.6-1.7l0,0c0.2-0.6,0.8-0.9,1.3-0.5l3.6,2.1
			c0.5,0.3,0.8,1.1,0.6,1.7h0C323.6,150.5,323,150.7,322.5,150.4z"/>
		<path class="st8" d="M341.3,183.1l-9.7-5.6c-0.5-0.3-0.8-1.1-0.6-1.7l0,0c0.2-0.6,0.8-0.9,1.3-0.5l9.7,5.6
			c0.5,0.3,0.8,1.1,0.6,1.7l0,0C342.4,183.2,341.8,183.4,341.3,183.1z"/>
		<path class="st8" d="M318.4,159l-2.3-1.4c-0.5-0.3-0.8-1.1-0.6-1.7l0,0c0.2-0.6,0.8-0.9,1.3-0.5l2.3,1.4c0.5,0.3,0.8,1.1,0.6,1.7
			l0,0C319.5,159,319,159.3,318.4,159z"/>
		<path class="st8" d="M316.2,168.6l-2.9-1.7c-0.5-0.3-0.8-1.1-0.6-1.7v0c0.2-0.6,0.8-0.9,1.3-0.5l2.9,1.7c0.5,0.3,0.8,1.1,0.6,1.7
			l0,0C317.3,168.7,316.7,168.9,316.2,168.6z"/>
		<path class="st8" d="M327.5,175.2l-7.7-4.4c-0.5-0.3-0.8-1.1-0.6-1.7l0,0c0.2-0.6,0.8-0.9,1.3-0.5l7.7,4.4
			c0.5,0.3,0.8,1.1,0.6,1.7l0,0C328.6,175.2,328,175.5,327.5,175.2z"/>
		<path class="st8" d="M317.4,174.8l-5.5-3.2c-0.5-0.3-0.8-1.1-0.6-1.7l0,0c0.2-0.6,0.8-0.9,1.3-0.5l5.5,3.2
			c0.5,0.3,0.8,1.1,0.6,1.7l0,0C318.5,174.9,317.9,175.1,317.4,174.8z"/>
		<path class="st8" d="M349.6,188l-3.5-2c-0.5-0.3-0.8-1.1-0.6-1.7l0,0c0.2-0.6,0.8-0.9,1.3-0.5l3.5,2c0.5,0.3,0.8,1.1,0.6,1.7l0,0
			C350.8,188,350.2,188.3,349.6,188z"/>
		<path class="st8" d="M336.1,158.2l-9.7-5.6c-0.5-0.3-0.8-1.1-0.6-1.7l0,0c0.2-0.6,0.8-0.9,1.3-0.5l9.7,5.6
			c0.5,0.3,0.8,1.1,0.6,1.7l0,0C337.2,158.3,336.6,158.6,336.1,158.2z"/>
	</g>
	<path class="st17" d="M337.2,153.4l-17-9.8c-0.5-0.3-0.8-1.1-0.6-1.7l0,0c0.2-0.6,0.8-0.9,1.3-0.5l17,9.8c0.5,0.3,0.8,1.1,0.6,1.7
		l0,0C338.4,153.5,337.8,153.8,337.2,153.4z"/>
	<path class="st17" d="M327.2,158.6l-9.7-5.6c-0.5-0.3-0.8-1.1-0.6-1.7l0,0c0.2-0.6,0.8-0.9,1.3-0.5l9.7,5.6
		c0.5,0.3,0.8,1.1,0.6,1.7l0,0C328.3,158.7,327.7,158.9,327.2,158.6z"/>
	<path class="st17" d="M343.5,162.5l-3.5-2c-0.5-0.3-0.8-1.1-0.6-1.7l0,0c0.2-0.6,0.8-0.9,1.3-0.5l3.5,2c0.5,0.3,0.8,1.1,0.6,1.7
		l0,0C344.6,162.6,344,162.8,343.5,162.5z"/>
	<path class="st17" d="M379.5,161.4l-21-12.1c-0.5-0.3-0.8-1.1-0.6-1.7l0,0c0.2-0.6,0.8-0.9,1.3-0.5l21,12.1
		c0.5,0.3,0.8,1.1,0.6,1.7l0,0C380.6,161.5,380,161.7,379.5,161.4z"/>
	<path class="st18" d="M326.4,169.1l-11.7-6.8c-0.5-0.3-0.8-1.1-0.6-1.7l0,0c0.2-0.6,0.8-0.9,1.3-0.5l11.7,6.8
		c0.5,0.3,0.8,1.1,0.6,1.7l0,0C327.5,169.1,326.9,169.4,326.4,169.1z"/>
	<path class="st18" d="M328.2,131.8l-8.6-5c-0.5-0.3-0.8-1.1-0.6-1.7l0,0c0.2-0.6,0.8-0.9,1.3-0.5l8.6,5c0.5,0.3,0.8,1.1,0.6,1.7
		l0,0C329.3,131.9,328.7,132.1,328.2,131.8z"/>
	<path class="st17" d="M315.6,179.2l-10-5.8c-0.5-0.3-0.8-1.1-0.6-1.7l0,0c0.2-0.6,0.8-0.9,1.3-0.5l10,5.8c0.5,0.3,0.8,1.1,0.6,1.7
		l0,0C316.7,179.3,316.1,179.5,315.6,179.2z"/>
</g>
<g>
	<path class="st8" d="M381.8,150.6l-4.3-2.5c-0.4-0.2-0.6-0.8-0.5-1.2l0,0c0.1-0.4,0.6-0.6,1-0.4l4.3,2.5c0.4,0.2,0.6,0.8,0.5,1.2
		l0,0C382.6,150.7,382.2,150.9,381.8,150.6z"/>
	<path class="st8" d="M390,155.3l-4.3-2.5c-0.4-0.2-0.6-0.8-0.5-1.2l0,0c0.1-0.4,0.6-0.6,1-0.4l4.3,2.5c0.4,0.2,0.6,0.8,0.5,1.2l0,0
		C390.8,155.4,390.4,155.6,390,155.3z"/>
	<path class="st8" d="M398.1,160.1l-4.3-2.5c-0.4-0.2-0.6-0.8-0.5-1.2l0,0c0.1-0.4,0.6-0.6,1-0.4l4.3,2.5c0.4,0.2,0.6,0.8,0.5,1.2
		l0,0C398.9,160.1,398.5,160.3,398.1,160.1z"/>
	<path class="st18" d="M402.1,162.4l-0.1-0.1c-0.4-0.2-0.6-0.8-0.5-1.2l0,0c0.1-0.4,0.6-0.6,1-0.4l0.1,0.1c0.4,0.2,0.6,0.8,0.5,1.2
		l0,0C402.9,162.4,402.5,162.6,402.1,162.4z"/>
</g>
<linearGradient id="SVGID_11_" gradientUnits="userSpaceOnUse" x1="143.4096" y1="190.2935" x2="220.185" y2="190.2935">
	<stop  offset="0" style="stop-color:#E39A65"/>
	<stop  offset="1" style="stop-color:#E95F8D"/>
</linearGradient>
<path class="st19" d="M181.8,212.3c-2.7,0-5.4-0.7-7.8-2.1l0,0l-28.6-16.5c-1.2-0.7-2-2-2-3.4c0-1.4,0.7-2.7,2-3.4l28.6-16.5
	c4.8-2.8,10.8-2.8,15.6,0l28.6,16.5c1.2,0.7,2,2,2,3.4c0,1.4-0.7,2.7-2,3.4l-28.6,16.5C187.2,211.6,184.5,212.3,181.8,212.3z
	 M174.9,208.6c4.2,2.5,9.5,2.5,13.8,0l28.6-16.5c0.7-0.4,1-1.1,1-1.8s-0.4-1.4-1-1.8L188.7,172c-4.2-2.5-9.5-2.5-13.8,0l-28.6,16.5
	c-0.7,0.4-1,1.1-1,1.8c0,0.8,0.4,1.4,1,1.8L174.9,208.6z"/>
<g>
	<ellipse class="st3" cx="181.7" cy="190.7" rx="19.6" ry="11.3"/>
	<radialGradient id="SVGID_12_" cx="150.2162" cy="127.668" r="165.349" gradientUnits="userSpaceOnUse">
		<stop  offset="0" style="stop-color:#E39A65"/>
		<stop  offset="0.1528" style="stop-color:#A92FFB"/>
		<stop  offset="0.4087" style="stop-color:#3919BB"/>
		<stop  offset="0.9311" style="stop-color:#3919BB"/>
	</radialGradient>
	<path class="st20" d="M210.8,109.9h-55.9l5.2,60.6l0,0c0,3.4,2.2,6.7,6.7,9.3c8.9,5.1,23.3,5.1,32.2,0c4.4-2.6,6.7-5.9,6.7-9.3
		L210.8,109.9z"/>
	<path class="st13" d="M210.8,109.9h-55.9l0.9,10c1.3,1.6,3,3.2,5.2,4.7c10.7,7.1,28.3,8.5,40.4,3.4l-1.9,44.3
		c-0.1,1.9-0.7,3.8-2,5.3c-1.8,2.1-5.3,4.6-12,6.1c4.9-0.3,9.7-1.6,13.5-3.8c4.4-2.6,6.7-5.9,6.7-9.3l4.2-48.6l0,0L210.8,109.9z"/>
	<ellipse class="st13" cx="182.8" cy="109.9" rx="28" ry="16.1"/>
	<ellipse class="st13" cx="182.8" cy="104.2" rx="24.1" ry="13.9"/>
	<linearGradient id="SVGID_13_" gradientUnits="userSpaceOnUse" x1="153.1426" y1="107.1846" x2="212.452" y2="107.1846">
		<stop  offset="0" style="stop-color:#E39A65"/>
		<stop  offset="0.252" style="stop-color:#A92FFB"/>
		<stop  offset="0.5556" style="stop-color:#3919BB"/>
	</linearGradient>
	<path class="st21" d="M212.4,109.1L212.4,109.1L212.4,109.1c0-0.1,0-0.1,0-0.1l-0.5-5.4l0,0.1c-0.2-4.1-3.1-8.2-8.5-11.3
		c-11.4-6.6-29.8-6.6-41.1,0c-5.6,3.2-8.4,7.4-8.5,11.6l0,0l-0.5,4.8c0,0.1,0,0.3,0,0.4l0,0.1l0,0c-0.3,4.6,2.6,9.3,8.7,12.8
		c11.6,6.7,30.4,6.7,41.9,0C209.9,118.4,212.8,113.7,212.4,109.1z"/>
	<linearGradient id="SVGID_14_" gradientUnits="userSpaceOnUse" x1="158.7038" y1="104.171" x2="206.8881" y2="104.171">
		<stop  offset="0" style="stop-color:#4F1FEC"/>
		<stop  offset="1" style="stop-color:#A92FFB"/>
	</linearGradient>
	<ellipse class="st22" cx="182.8" cy="104.2" rx="24.1" ry="13.9"/>
	<linearGradient id="SVGID_15_" gradientUnits="userSpaceOnUse" x1="157.5606" y1="104.171" x2="205.7449" y2="104.171">
		<stop  offset="0" style="stop-color:#4F1FEC"/>
		<stop  offset="1" style="stop-color:#A92FFB"/>
	</linearGradient>
	<ellipse class="st23" cx="181.7" cy="104.2" rx="24.1" ry="13.9"/>
	<path class="st13" d="M168.6,96.4c9.4-5.4,24.7-5.4,34.1,0c0.1,0.1,0.2,0.1,0.3,0.2c-0.9-0.8-2-1.6-3.2-2.3
		c-9.4-5.4-24.7-5.4-34.1,0c-9.3,5.4-9.4,14-0.3,19.5C159.4,108.4,160.4,101.1,168.6,96.4z"/>
	<linearGradient id="SVGID_16_" gradientUnits="userSpaceOnUse" x1="158.7078" y1="97.82" x2="219.46" y2="97.82">
		<stop  offset="0" style="stop-color:#131060"/>
		<stop  offset="0.1857" style="stop-color:#141062"/>
		<stop  offset="0.2823" style="stop-color:#19106A"/>
		<stop  offset="0.3584" style="stop-color:#221078"/>
		<stop  offset="0.4238" style="stop-color:#2E0F8B"/>
		<stop  offset="0.4823" style="stop-color:#3E0FA3"/>
		<stop  offset="0.5359" style="stop-color:#510EC2"/>
		<stop  offset="0.5847" style="stop-color:#680DE5"/>
		<stop  offset="0.6071" style="stop-color:#740DF8"/>
		<stop  offset="0.6179" style="stop-color:#7A14F0"/>
		<stop  offset="0.6826" style="stop-color:#9B3CC3"/>
		<stop  offset="0.7477" style="stop-color:#B75D9D"/>
		<stop  offset="0.8123" style="stop-color:#CC7680"/>
		<stop  offset="0.8762" style="stop-color:#DC886C"/>
		<stop  offset="0.9391" style="stop-color:#E5935F"/>
		<stop  offset="1" style="stop-color:#E8975B"/>
	</linearGradient>
	<path class="st24" d="M165.8,96.7c9.4-5.4,24.7-5.4,34.1,0c4.2,2.4,6.5,5.5,7,8.6c0.6-4-1.7-8-7-11c-9.4-5.4-24.7-5.4-34.1,0
		c-5.2,3-7.6,7.1-7,11C159.3,102.2,161.6,99.2,165.8,96.7z"/>
	<radialGradient id="SVGID_17_" cx="145.7399" cy="90.4045" r="108.1645" gradientUnits="userSpaceOnUse">
		<stop  offset="0" style="stop-color:#E39A65"/>
		<stop  offset="0.252" style="stop-color:#A92FFB"/>
		<stop  offset="0.7357" style="stop-color:#3919BB"/>
	</radialGradient>
	<path class="st25" d="M203.5,92.4c-11.3-6.7-29.8-6.8-41.3-0.4c-11.5,6.5-11.5,17.2-0.2,23.8c11.3,6.7,29.8,6.8,41.3,0.4
		C214.8,109.8,214.9,99.1,203.5,92.4z M199.8,114c-3.1,1.8-6.9,3-11,3.6l-0.4-1.4c-0.2-0.6-0.7-1-1.3-1h-8.7c-0.6,0-1.1,0.4-1.3,1
		l-0.4,1.4c-4-0.6-7.8-1.8-11-3.6c-9.4-5.4-9.4-14.2,0-19.7c9.4-5.4,24.7-5.4,34.1,0C209.2,99.8,209.2,108.6,199.8,114z"/>
	<g>
		<path class="st8" d="M199.8,93.3c-9.4-5.4-24.7-5.4-34.1,0c-4.9,2.8-7.3,6.6-7,10.3c0.2-3.4,2.6-6.7,7-9.3
			c9.4-5.4,24.7-5.4,34.1,0c4.5,2.6,6.8,5.9,7,9.3C207.1,99.9,204.8,96.2,199.8,93.3z"/>
		<path class="st8" d="M203.3,115.2c-11.5,6.5-29.9,6.3-41.3-0.4c-5.4-3.2-8.2-7.3-8.4-11.4c-0.2,4.4,2.6,9,8.4,12.4
			c11.3,6.7,29.8,6.8,41.3,0.4c6-3.4,8.9-7.9,8.6-12.5C211.8,108,208.9,112.1,203.3,115.2z"/>
	</g>
	<path class="st26" d="M185.4,118.4h-5.2c-0.4,0-0.7-0.3-0.7-0.7v-0.1c0-0.4,0.3-0.7,0.7-0.7h5.2c0.4,0,0.7,0.3,0.7,0.7v0.1
		C186,118.1,185.7,118.4,185.4,118.4z"/>
	<linearGradient id="SVGID_18_" gradientUnits="userSpaceOnUse" x1="178.9827" y1="117.4271" x2="187.3873" y2="117.4271">
		<stop  offset="0" style="stop-color:#131060"/>
		<stop  offset="0.1857" style="stop-color:#141062"/>
		<stop  offset="0.2823" style="stop-color:#19106A"/>
		<stop  offset="0.3584" style="stop-color:#221078"/>
		<stop  offset="0.4238" style="stop-color:#2E0F8B"/>
		<stop  offset="0.4823" style="stop-color:#3E0FA3"/>
		<stop  offset="0.5359" style="stop-color:#510EC2"/>
		<stop  offset="0.5847" style="stop-color:#680DE5"/>
		<stop  offset="0.6071" style="stop-color:#740DF8"/>
		<stop  offset="0.6179" style="stop-color:#7A14F0"/>
		<stop  offset="0.6826" style="stop-color:#9B3CC3"/>
		<stop  offset="0.7477" style="stop-color:#B75D9D"/>
		<stop  offset="0.8123" style="stop-color:#CC7680"/>
		<stop  offset="0.8762" style="stop-color:#DC886C"/>
		<stop  offset="0.9391" style="stop-color:#E5935F"/>
		<stop  offset="1" style="stop-color:#E8975B"/>
	</linearGradient>
	<path class="st27" d="M185.4,117h-5.2c-0.4,0-0.7,0.3-0.7,0.7v0.1c0,0.1,0,0.1,0,0.2c0.1-0.3,0.3-0.5,0.6-0.5h5.2
		c0.3,0,0.5,0.2,0.6,0.5c0-0.1,0-0.1,0-0.2v-0.1C186,117.3,185.7,117,185.4,117z"/>
	<g>
		<path class="st17" d="M183.6,164.2c-0.6,2.4-3.1,3.8-5.5,3.2c-2.4-0.6-3.8-3.1-3.2-5.5c0.6-2.4,2.9-3.1,5.3-2.4
			C182.6,160.1,184.2,161.8,183.6,164.2z"/>
		<path class="st17" d="M187.1,159.5c-0.9,0.9-2.1,0.8-2.8,0c-0.8-0.8-0.9-1.9,0-2.8c0.9-0.9,2.6-1.3,3.4-0.5
			C188.5,156.9,188,158.6,187.1,159.5z"/>
		<path class="st17" d="M182.4,155.8c-0.2,1.2-1.2,1.8-2.3,1.6c-1.1-0.2-1.8-1.1-1.6-2.3c0.2-1.2,1.4-2.6,2.4-2.4
			C182,152.9,182.7,154.5,182.4,155.8z"/>
		<path class="st17" d="M176.7,155.2c0.5,1.2-0.1,2.2-1.1,2.6c-1,0.4-2.1,0.1-2.6-1.1c-0.5-1.2-0.2-2.9,0.8-3.3
			C174.8,153,176.2,154,176.7,155.2z"/>
	</g>
</g>
<path class="st28" d="M184.6,117.7c0,0,15.6-5.2,9.3-23.2S175.3,71,180.2,56.6c0,0-7.8,11.6-0.5,27.4c7.3,15.7,8.9,13.9,8.8,21.5
	c-0.1,8.9-7.3,12.2-7.3,12.2H184.6z"/>
<path class="st28" d="M186,59.1c0,0-1.6-10.8,8.5-21.6c0,0-8.9,19.9-6,29.7C188.5,67.3,186.1,61,186,59.1z"/>
</svg>
