<svg width="24" height="24" viewBox="0 0 24 24" fill="none" xmlns="http://www.w3.org/2000/svg">
<path d="M12.0009 4.21182C7.58038 4.21004 4 7.78863 4 12.2056C4 15.6984 6.23975 18.6674 9.35895 19.7578C9.77902 19.8633 9.71467 19.5647 9.71467 19.361V17.9756C7.28902 18.2599 7.1907 16.6547 7.02804 16.3866C6.69914 15.8253 5.92157 15.6823 6.15395 15.4141C6.70629 15.1299 7.26936 15.4856 7.9218 16.4491C8.3937 17.148 9.31427 17.0301 9.78081 16.9139C9.88269 16.4938 10.1008 16.1184 10.4011 15.8271C7.88783 15.3766 6.84035 13.8429 6.84035 12.0197C6.84035 11.1348 7.13172 10.3215 7.70372 9.66552C7.33907 8.58407 7.73768 7.65814 7.79131 7.5205C8.82985 7.42755 9.90951 8.26411 9.99352 8.33025C10.5834 8.17116 11.2573 8.08714 12.0116 8.08714C12.7695 8.08714 13.4452 8.17473 14.0404 8.33561C14.2424 8.18188 15.2434 7.4633 16.2087 7.55089C16.2605 7.68853 16.6502 8.59301 16.307 9.66015C16.8862 10.318 17.1811 11.1384 17.1811 12.025C17.1811 13.8519 16.1265 15.3873 13.6061 15.8306C13.822 16.0429 13.9934 16.2961 14.1103 16.5754C14.2272 16.8547 14.2873 17.1545 14.2871 17.4573V19.4682C14.3014 19.6291 14.2871 19.7882 14.5552 19.7882C17.7209 18.721 20 15.7305 20 12.2074C20 7.78863 16.4178 4.21182 12.0009 4.21182Z" fill="white"/>
</svg>
