<svg width="24" height="24" viewBox="0 0 24 24" fill="none" xmlns="http://www.w3.org/2000/svg">
<rect x="5.33092" y="5.32991" width="13.3392" height="13.3392" fill="white"/>
<path d="M7.1354 4C5.41118 4 4 5.41114 4 7.1354V16.8651C4 18.5893 5.41114 20 7.1354 20H16.8651C18.5894 20 20 18.5894 20 16.8651V7.1354C20 5.41118 18.5894 4 16.8651 4H7.1354ZM7.924 6.64032C8.75073 6.64032 9.25996 7.18306 9.27568 7.89647C9.27568 8.59414 8.7507 9.15212 7.90801 9.15212H7.8925C7.08151 9.15212 6.55733 8.59417 6.55733 7.89647C6.55733 7.18307 7.09737 6.64032 7.92399 6.64032H7.924ZM15.0484 9.97474C16.6384 9.97474 17.8303 11.0139 17.8303 13.2471V17.4162H15.4139V13.5267C15.4139 12.5493 15.0642 11.8825 14.1898 11.8825C13.5222 11.8825 13.1243 12.3319 12.9496 12.7661C12.8858 12.9214 12.8701 13.1383 12.8701 13.3556V17.4162H10.4538C10.4538 17.4162 10.4855 10.8275 10.4538 10.1452H12.8706V11.1749C13.1917 10.6795 13.7661 9.97472 15.0484 9.97472V9.97474ZM6.69985 10.1458H9.11616V17.4162H6.69985V10.1458Z" fill="#0077B5"/>
</svg>
